<svg id="svg" version="1.1" xmlns="http://www.w3.org/2000/svg" xmlns:xlink="http://www.w3.org/1999/xlink" width="400" height="400" viewBox="0, 0, 400,400"><g id="svgg"><path id="path0" d="M189.606 0.292 C 190.648 0.374,192.253 0.373,193.174 0.290 C 194.094 0.207,193.241 0.140,191.278 0.141 C 189.316 0.142,188.563 0.210,189.606 0.292 M206.640 0.291 C 207.676 0.373,209.371 0.373,210.406 0.291 C 211.442 0.210,210.595 0.143,208.523 0.143 C 206.452 0.143,205.605 0.210,206.640 0.291 M183.251 0.680 C 183.850 0.771,184.832 0.771,185.431 0.680 C 186.031 0.590,185.540 0.515,184.341 0.515 C 183.142 0.515,182.651 0.590,183.251 0.680 M214.569 0.680 C 215.168 0.771,216.150 0.771,216.749 0.680 C 217.349 0.590,216.858 0.515,215.659 0.515 C 214.460 0.515,213.969 0.590,214.569 0.680 M179.093 1.073 C 179.586 1.168,180.300 1.164,180.679 1.065 C 181.058 0.966,180.654 0.888,179.782 0.893 C 178.910 0.897,178.600 0.978,179.093 1.073 M219.128 1.073 C 219.618 1.167,220.421 1.167,220.912 1.073 C 221.402 0.978,221.001 0.901,220.020 0.901 C 219.039 0.901,218.637 0.978,219.128 1.073 M175.525 1.470 C 176.018 1.565,176.732 1.561,177.111 1.462 C 177.490 1.362,177.086 1.285,176.214 1.289 C 175.342 1.294,175.032 1.375,175.525 1.470 M223.097 1.470 C 223.590 1.565,224.303 1.561,224.683 1.462 C 225.062 1.362,224.658 1.285,223.786 1.289 C 222.914 1.294,222.604 1.375,223.097 1.470 M241.031 4.361 C 241.576 4.535,242.379 4.678,242.815 4.678 C 243.442 4.678,243.401 4.612,242.616 4.361 C 242.071 4.186,241.269 4.043,240.833 4.043 C 240.205 4.043,240.246 4.109,241.031 4.361 M146.085 7.136 C 145.585 7.351,145.512 7.476,145.887 7.476 C 146.214 7.476,146.838 7.323,147.275 7.136 C 147.774 6.921,147.848 6.795,147.473 6.795 C 147.146 6.795,146.521 6.948,146.085 7.136 M256.690 8.325 C 257.126 8.512,257.750 8.666,258.077 8.666 C 258.452 8.666,258.379 8.540,257.879 8.325 C 257.443 8.138,256.819 7.984,256.492 7.984 C 256.117 7.984,256.190 8.110,256.690 8.325 M135.456 10.380 C 133.534 11.039,132.031 11.648,132.115 11.732 C 132.199 11.815,134.038 11.275,136.203 10.531 C 138.368 9.787,139.871 9.179,139.544 9.179 C 139.217 9.180,137.377 9.720,135.456 10.380 M268.781 12.223 C 269.108 12.425,269.822 12.709,270.367 12.855 C 271.055 13.039,271.176 13.008,270.763 12.753 C 270.436 12.551,269.722 12.266,269.177 12.120 C 268.489 11.936,268.368 11.967,268.781 12.223 M120.912 16.056 C 120.367 16.367,120.099 16.622,120.317 16.622 C 120.535 16.622,121.160 16.367,121.705 16.056 C 122.250 15.744,122.517 15.489,122.299 15.489 C 122.081 15.489,121.457 15.744,120.912 16.056 M282.260 17.839 C 283.023 18.257,283.826 18.599,284.044 18.599 C 284.262 18.599,283.816 18.257,283.053 17.839 C 282.289 17.422,281.487 17.080,281.269 17.080 C 281.051 17.080,281.497 17.422,282.260 17.839 M110.109 21.035 C 107.983 22.116,106.244 23.090,106.244 23.199 C 106.244 23.376,114.133 19.554,114.536 19.181 C 115.128 18.634,113.444 19.339,110.109 21.035 M287.843 20.369 C 288.247 20.737,292.170 22.589,292.170 22.412 C 292.170 22.188,288.385 20.218,287.955 20.218 C 287.802 20.218,287.752 20.286,287.843 20.369 M294.153 23.572 C 294.153 23.681,294.866 24.134,295.738 24.579 C 296.611 25.024,297.324 25.299,297.324 25.190 C 297.324 25.081,296.611 24.627,295.738 24.182 C 294.866 23.737,294.153 23.463,294.153 23.572 M102.973 24.806 C 101.491 25.610,101.581 25.944,103.072 25.173 C 103.726 24.835,104.262 24.474,104.262 24.370 C 104.262 24.115,104.219 24.130,102.973 24.806 M100.198 26.391 C 98.716 27.195,98.806 27.530,100.297 26.759 C 100.951 26.421,101.487 26.060,101.487 25.956 C 101.487 25.701,101.444 25.715,100.198 26.391 M300.496 27.135 C 300.496 27.244,301.031 27.610,301.685 27.948 C 302.339 28.287,302.874 28.474,302.874 28.365 C 302.874 28.256,302.339 27.890,301.685 27.552 C 301.031 27.214,300.496 27.026,300.496 27.135 M93.261 30.571 C 91.909 31.436,91.472 32.017,92.666 31.361 C 93.576 30.861,95.001 29.759,94.747 29.752 C 94.638 29.748,93.969 30.117,93.261 30.571 M306.640 30.811 C 307.263 31.442,314.371 36.119,314.371 35.898 C 314.371 35.789,312.810 34.656,310.902 33.381 C 307.042 30.802,306.028 30.191,306.640 30.811 M88.695 33.513 C 87.881 34.066,87.215 34.603,87.215 34.708 C 87.215 34.812,87.929 34.425,88.801 33.848 C 90.186 32.931,90.654 32.507,90.280 32.507 C 90.222 32.507,89.508 32.960,88.695 33.513 M84.936 36.115 C 84.009 36.771,83.251 37.396,83.251 37.504 C 83.251 37.611,84.054 37.147,85.035 36.472 C 86.016 35.797,86.819 35.164,86.819 35.065 C 86.819 34.792,86.744 34.834,84.936 36.115 M81.254 38.879 L 79.881 40.097 81.368 39.030 C 82.681 38.087,83.109 37.661,82.740 37.661 C 82.677 37.661,82.009 38.209,81.254 38.879 M317.542 38.183 C 317.542 38.279,318.925 39.371,320.614 40.609 C 322.304 41.847,323.095 42.337,322.372 41.697 C 320.805 40.309,317.542 37.936,317.542 38.183 M75.055 43.591 C 72.623 45.544,70.511 47.338,70.362 47.579 C 70.214 47.819,72.116 46.382,74.590 44.385 C 79.419 40.486,79.940 40.040,79.660 40.040 C 79.560 40.040,77.488 41.638,75.055 43.591 M325.867 44.480 C 325.867 44.599,327.517 46.093,329.534 47.800 C 331.551 49.506,336.680 54.297,340.932 58.446 C 348.435 65.767,348.481 65.804,342.517 59.723 C 339.138 56.277,334.410 51.743,332.012 49.648 C 329.613 47.552,327.250 45.483,326.759 45.050 C 326.269 44.617,325.867 44.360,325.867 44.480 M68.165 49.455 L 66.799 50.942 68.285 49.575 C 69.103 48.824,69.772 48.155,69.772 48.089 C 69.772 47.786,69.437 48.071,68.165 49.455 M60.852 56.146 L 55.302 61.528 60.951 56.281 C 65.964 51.624,66.879 50.713,66.501 50.754 C 66.447 50.760,63.905 53.186,60.852 56.146 M52.906 64.321 C 49.397 67.985,47.789 69.772,48.002 69.772 C 48.107 69.772,49.849 67.988,51.874 65.808 C 53.899 63.627,55.494 61.843,55.418 61.843 C 55.342 61.843,54.211 62.958,52.906 64.321 M350.806 68.880 C 352.198 70.461,353.417 71.754,353.516 71.754 C 353.774 71.754,349.809 67.218,348.975 66.558 C 348.590 66.255,349.415 67.299,350.806 68.880 M46.722 71.259 C 45.701 72.373,41.019 78.213,40.286 79.286 C 39.296 80.736,40.982 78.805,44.354 74.628 C 47.894 70.242,48.691 69.109,46.722 71.259 M355.760 74.827 C 357.029 76.407,358.148 77.701,358.247 77.701 C 358.511 77.701,354.797 73.030,354.071 72.448 C 353.731 72.175,354.491 73.246,355.760 74.827 M359.931 80.178 C 360.872 81.432,361.720 82.458,361.817 82.458 C 362.087 82.458,359.479 78.915,358.812 78.377 C 358.486 78.114,358.990 78.925,359.931 80.178 M39.191 80.773 C 38.051 82.150,37.568 82.854,37.764 82.854 C 37.874 82.854,38.440 82.230,39.022 81.467 C 40.102 80.051,40.233 79.516,39.191 80.773 M362.735 84.044 C 363.201 84.698,363.671 85.233,363.780 85.233 C 363.889 85.233,363.598 84.698,363.132 84.044 C 362.666 83.389,362.196 82.854,362.087 82.854 C 361.978 82.854,362.270 83.389,362.735 84.044 M36.075 85.035 C 35.400 86.016,34.937 86.819,35.046 86.819 C 35.155 86.819,35.797 86.016,36.472 85.035 C 37.147 84.054,37.610 83.251,37.501 83.251 C 37.392 83.251,36.750 84.054,36.075 85.035 M366.556 89.594 C 367.571 91.120,368.475 92.369,368.565 92.369 C 368.776 92.369,368.481 91.875,366.616 89.098 C 365.774 87.844,365.000 86.819,364.898 86.819 C 364.795 86.819,365.542 88.067,366.556 89.594 M33.789 88.305 C 32.762 89.788,32.429 90.387,32.630 90.387 C 32.722 90.387,33.271 89.673,33.848 88.801 C 35.021 87.028,34.970 86.600,33.789 88.305 M31.073 92.468 C 29.708 94.783,29.619 94.981,30.314 94.153 C 31.120 93.193,31.814 91.972,31.554 91.972 C 31.450 91.972,31.233 92.195,31.073 92.468 M26.363 100.297 C 26.024 100.951,25.837 101.487,25.946 101.487 C 26.055 101.487,26.421 100.951,26.759 100.297 C 27.097 99.643,27.285 99.108,27.176 99.108 C 27.067 99.108,26.701 99.643,26.363 100.297 M373.637 101.090 C 373.976 101.744,374.341 102.279,374.450 102.279 C 374.560 102.279,374.372 101.744,374.034 101.090 C 373.695 100.436,373.329 99.901,373.220 99.901 C 373.111 99.901,373.299 100.436,373.637 101.090 M24.777 103.072 C 24.439 103.726,24.251 104.262,24.360 104.262 C 24.469 104.262,24.835 103.726,25.173 103.072 C 25.512 102.418,25.699 101.883,25.590 101.883 C 25.481 101.883,25.115 102.418,24.777 103.072 M375.818 105.055 C 376.263 105.927,376.716 106.640,376.825 106.640 C 376.934 106.640,376.659 105.927,376.214 105.055 C 375.769 104.182,375.316 103.469,375.207 103.469 C 375.098 103.469,375.373 104.182,375.818 105.055 M20.792 110.646 C 19.795 112.631,19.043 114.319,19.121 114.396 C 19.198 114.474,20.100 112.850,21.125 110.787 C 22.149 108.724,22.902 107.037,22.796 107.037 C 22.691 107.037,21.789 108.661,20.792 110.646 M381.004 115.164 C 381.004 115.382,381.346 116.184,381.764 116.947 C 382.182 117.711,382.524 118.157,382.524 117.939 C 382.524 117.721,382.182 116.918,381.764 116.155 C 381.346 115.391,381.004 114.945,381.004 115.164 M382.982 119.524 C 382.982 119.742,383.236 120.367,383.548 120.912 C 383.860 121.457,384.115 121.724,384.115 121.506 C 384.115 121.288,383.860 120.664,383.548 120.119 C 383.236 119.574,382.982 119.306,382.982 119.524 M15.922 121.127 C 15.257 122.585,15.384 122.896,16.102 121.571 C 16.438 120.952,16.638 120.371,16.547 120.280 C 16.457 120.190,16.175 120.571,15.922 121.127 M385.130 124.777 C 385.283 125.159,385.775 126.411,386.221 127.560 C 386.668 128.709,387.105 129.578,387.192 129.491 C 387.388 129.295,385.323 124.083,385.049 124.083 C 384.940 124.083,384.976 124.395,385.130 124.777 M387.938 132.012 C 388.084 132.557,388.368 133.271,388.570 133.598 C 388.826 134.011,388.857 133.890,388.673 133.201 C 388.527 132.656,388.242 131.943,388.040 131.615 C 387.785 131.202,387.754 131.323,387.938 132.012 M10.150 136.250 C 9.582 137.954,9.131 139.526,9.148 139.744 C 9.164 139.961,9.698 138.636,10.333 136.798 C 10.969 134.961,11.420 133.389,11.335 133.304 C 11.251 133.220,10.718 134.545,10.150 136.250 M57.785 138.239 C 58.278 138.334,58.991 138.330,59.370 138.231 C 59.749 138.132,59.346 138.054,58.474 138.058 C 57.602 138.063,57.291 138.144,57.785 138.239 M63.335 138.635 C 63.828 138.730,64.541 138.726,64.920 138.627 C 65.299 138.528,64.896 138.450,64.024 138.455 C 63.152 138.459,62.842 138.540,63.335 138.635 M86.521 139.043 C 87.557 139.124,89.252 139.124,90.287 139.043 C 91.323 138.961,90.476 138.894,88.404 138.894 C 86.333 138.894,85.486 138.961,86.521 139.043 M106.554 139.044 C 107.706 139.124,109.490 139.123,110.519 139.042 C 111.547 138.961,110.605 138.895,108.424 138.896 C 106.244 138.897,105.402 138.964,106.554 139.044 M126.957 139.035 C 127.557 139.126,128.538 139.126,129.138 139.035 C 129.737 138.944,129.247 138.870,128.048 138.870 C 126.848 138.870,126.358 138.944,126.957 139.035 M135.282 139.045 C 136.754 139.121,139.163 139.121,140.634 139.045 C 142.106 138.969,140.902 138.907,137.958 138.907 C 135.015 138.907,133.811 138.969,135.282 139.045 M390.541 139.544 C 390.541 139.871,390.695 140.496,390.882 140.932 C 391.097 141.431,391.223 141.505,391.223 141.130 C 391.223 140.803,391.069 140.178,390.882 139.742 C 390.667 139.243,390.541 139.169,390.541 139.544 M63.137 144.586 C 63.740 144.677,64.632 144.674,65.119 144.580 C 65.607 144.486,65.114 144.412,64.024 144.415 C 62.934 144.418,62.535 144.495,63.137 144.586 M106.938 144.992 C 108.518 145.067,111.105 145.067,112.686 144.992 C 114.267 144.917,112.973 144.855,109.812 144.855 C 106.650 144.855,105.357 144.917,106.938 144.992 M129.138 144.990 C 130.282 145.070,132.156 145.070,133.300 144.990 C 134.445 144.910,133.508 144.844,131.219 144.844 C 128.930 144.844,127.993 144.910,129.138 144.990 M6.966 146.510 C 6.820 147.091,6.777 147.643,6.871 147.736 C 6.964 147.830,7.160 147.431,7.306 146.850 C 7.451 146.269,7.494 145.717,7.401 145.624 C 7.307 145.530,7.112 145.929,6.966 146.510 M392.524 146.283 C 392.524 146.611,392.677 147.235,392.864 147.671 C 393.079 148.171,393.205 148.244,393.205 147.869 C 393.205 147.542,393.052 146.918,392.864 146.482 C 392.649 145.982,392.524 145.909,392.524 146.283 M72.269 151.437 C 72.269 152.636,72.344 153.127,72.435 152.527 C 72.525 151.928,72.525 150.946,72.435 150.347 C 72.344 149.747,72.269 150.238,72.269 151.437 M89.289 151.041 C 89.289 151.804,89.371 152.116,89.470 151.734 C 89.570 151.353,89.570 150.728,89.470 150.347 C 89.371 149.965,89.289 150.278,89.289 151.041 M153.142 160.159 C 153.142 161.358,153.216 161.848,153.307 161.249 C 153.398 160.649,153.398 159.668,153.307 159.068 C 153.216 158.469,153.142 158.959,153.142 160.159 M195.342 165.196 C 195.833 165.290,196.635 165.290,197.126 165.196 C 197.616 165.101,197.215 165.024,196.234 165.024 C 195.253 165.024,194.851 165.101,195.342 165.196 M72.730 186.521 C 72.730 196.551,72.781 200.597,72.844 195.513 C 72.907 190.429,72.907 182.222,72.844 177.277 C 72.781 172.332,72.730 176.492,72.730 186.521 M197.977 176.412 C 197.977 179.574,198.039 180.867,198.114 179.286 C 198.189 177.706,198.189 175.119,198.114 173.538 C 198.039 171.957,197.977 173.251,197.977 176.412 M89.385 181.962 L 89.395 192.468 91.576 192.506 L 93.756 192.543 91.681 192.386 L 89.607 192.229 89.491 181.843 L 89.375 171.457 89.385 181.962 M398.110 173.637 C 398.110 174.400,398.191 174.713,398.291 174.331 C 398.391 173.949,398.391 173.325,398.291 172.944 C 398.191 172.562,398.110 172.874,398.110 173.637 M1.289 176.214 C 1.294 177.086,1.375 177.396,1.470 176.903 C 1.565 176.410,1.561 175.697,1.462 175.317 C 1.362 174.938,1.285 175.342,1.289 176.214 M398.506 176.809 C 398.506 177.572,398.588 177.884,398.688 177.502 C 398.787 177.121,398.787 176.497,398.688 176.115 C 398.588 175.733,398.506 176.046,398.506 176.809 M0.893 179.782 C 0.897 180.654,0.978 180.964,1.073 180.471 C 1.168 179.978,1.164 179.264,1.065 178.885 C 0.966 178.506,0.888 178.910,0.893 179.782 M398.919 180.773 C 398.919 181.754,398.996 182.156,399.090 181.665 C 399.185 181.174,399.185 180.372,399.090 179.881 C 398.996 179.390,398.919 179.792,398.919 180.773 M142.023 180.971 C 142.027 181.843,142.108 182.154,142.203 181.660 C 142.298 181.167,142.294 180.454,142.195 180.075 C 142.096 179.696,142.018 180.099,142.023 180.971 M0.515 184.341 C 0.515 185.540,0.590 186.031,0.680 185.431 C 0.771 184.832,0.771 183.850,0.680 183.251 C 0.590 182.651,0.515 183.142,0.515 184.341 M300.005 183.432 C 300.498 183.527,301.211 183.523,301.590 183.424 C 301.969 183.325,301.566 183.247,300.694 183.252 C 299.822 183.256,299.511 183.337,300.005 183.432 M307.730 183.832 C 308.330 183.923,309.311 183.923,309.911 183.832 C 310.510 183.741,310.020 183.667,308.821 183.667 C 307.621 183.667,307.131 183.741,307.730 183.832 M318.637 183.828 C 319.130 183.923,319.844 183.920,320.223 183.820 C 320.602 183.721,320.198 183.644,319.326 183.648 C 318.454 183.652,318.144 183.734,318.637 183.828 M345.800 183.840 C 346.842 183.922,348.448 183.921,349.368 183.838 C 350.288 183.755,349.435 183.688,347.473 183.689 C 345.510 183.690,344.758 183.758,345.800 183.840 M357.299 183.841 C 358.561 183.920,360.523 183.920,361.660 183.840 C 362.796 183.760,361.764 183.695,359.366 183.696 C 356.967 183.697,356.037 183.763,357.299 183.841 M399.326 185.530 C 399.326 186.729,399.400 187.220,399.491 186.620 C 399.582 186.021,399.582 185.040,399.491 184.440 C 399.400 183.840,399.326 184.331,399.326 185.530 M213.974 184.628 C 214.683 184.716,215.842 184.716,216.551 184.628 C 217.260 184.540,216.680 184.468,215.263 184.468 C 213.845 184.468,213.266 184.540,213.974 184.628 M205.055 185.021 C 205.654 185.112,206.635 185.112,207.235 185.021 C 207.834 184.930,207.344 184.856,206.145 184.856 C 204.945 184.856,204.455 184.930,205.055 185.021 M324.250 186.818 C 324.132 187.670,324.193 188.156,324.392 187.957 C 324.583 187.765,324.676 187.097,324.598 186.470 C 324.467 185.422,324.440 185.450,324.250 186.818 M252.235 186.211 C 252.838 186.302,253.730 186.300,254.218 186.206 C 254.705 186.112,254.212 186.037,253.122 186.040 C 252.032 186.043,251.633 186.120,252.235 186.211 M0.141 191.278 C 0.140 193.241,0.207 194.094,0.290 193.174 C 0.373 192.253,0.374 190.648,0.292 189.606 C 0.210 188.563,0.142 189.316,0.141 191.278 M399.777 199.802 C 399.777 205.798,399.833 208.251,399.900 205.253 C 399.967 202.255,399.967 197.349,399.900 194.351 C 399.833 191.353,399.777 193.806,399.777 199.802 M141.692 197.621 C 141.692 201.764,141.751 203.405,141.822 201.268 C 141.893 199.131,141.893 195.741,141.821 193.736 C 141.750 191.730,141.691 193.479,141.692 197.621 M264.420 191.675 C 265.160 192.438,265.854 193.062,265.963 193.062 C 266.072 193.062,265.556 192.438,264.817 191.675 C 264.077 190.912,263.383 190.287,263.274 190.287 C 263.165 190.287,263.681 190.912,264.420 191.675 M172.936 191.873 C 172.936 192.636,173.018 192.948,173.118 192.567 C 173.217 192.185,173.217 191.561,173.118 191.179 C 173.018 190.798,172.936 191.110,172.936 191.873 M275.224 192.071 C 275.228 192.944,275.309 193.254,275.404 192.760 C 275.499 192.267,275.495 191.554,275.396 191.175 C 275.297 190.796,275.219 191.199,275.224 192.071 M221.209 192.387 C 221.209 192.932,220.600 193.054,217.344 193.163 L 213.479 193.293 217.356 193.376 C 221.107 193.456,222.465 192.996,221.456 191.988 C 221.320 191.852,221.209 192.032,221.209 192.387 M117.641 192.565 C 119.876 192.636,123.533 192.636,125.768 192.565 C 128.003 192.495,126.174 192.437,121.705 192.437 C 117.235 192.437,115.406 192.495,117.641 192.565 M100.396 192.955 C 101.214 193.040,102.552 193.040,103.370 192.955 C 104.187 192.869,103.518 192.799,101.883 192.799 C 100.248 192.799,99.579 192.869,100.396 192.955 M200.892 193.751 C 202.037 193.831,203.910 193.831,205.055 193.751 C 206.199 193.671,205.263 193.606,202.973 193.606 C 200.684 193.606,199.747 193.671,200.892 193.751 M175.520 194.532 C 176.011 194.626,176.814 194.626,177.304 194.532 C 177.795 194.437,177.393 194.360,176.412 194.360 C 175.431 194.360,175.030 194.437,175.520 194.532 M197.157 199.604 C 197.159 201.130,197.230 201.706,197.316 200.883 C 197.402 200.061,197.400 198.812,197.313 198.108 C 197.225 197.404,197.155 198.077,197.157 199.604 M275.639 199.009 C 275.639 200.208,275.713 200.699,275.804 200.099 C 275.895 199.500,275.895 198.518,275.804 197.919 C 275.713 197.319,275.639 197.810,275.639 199.009 M103.370 198.909 C 106.913 198.975,112.711 198.975,116.254 198.909 C 119.797 198.843,116.898 198.790,109.812 198.790 C 102.725 198.790,99.827 198.843,103.370 198.909 M0.143 208.523 C 0.143 210.595,0.210 211.442,0.291 210.406 C 0.373 209.371,0.373 207.676,0.291 206.640 C 0.210 205.605,0.143 206.452,0.143 208.523 M72.725 218.831 C 72.725 226.135,72.778 229.123,72.844 225.471 C 72.909 221.819,72.909 215.842,72.844 212.190 C 72.778 208.538,72.725 211.526,72.725 218.831 M142.023 209.911 C 142.027 210.783,142.108 211.093,142.203 210.600 C 142.298 210.107,142.294 209.393,142.195 209.014 C 142.096 208.635,142.018 209.039,142.023 209.911 M184.464 210.704 C 184.466 212.012,184.540 212.499,184.628 211.787 C 184.716 211.074,184.715 210.004,184.624 209.408 C 184.534 208.812,184.462 209.395,184.464 210.704 M399.330 214.668 C 399.332 215.976,399.406 216.464,399.494 215.751 C 399.583 215.039,399.581 213.968,399.490 213.372 C 399.400 212.777,399.328 213.360,399.330 214.668 M0.515 215.659 C 0.515 216.858,0.590 217.349,0.680 216.749 C 0.771 216.150,0.771 215.168,0.680 214.569 C 0.590 213.969,0.515 214.460,0.515 215.659 M142.419 215.461 C 142.424 216.333,142.505 216.643,142.600 216.150 C 142.694 215.657,142.691 214.943,142.592 214.564 C 142.492 214.185,142.415 214.589,142.419 215.461 M398.919 219.227 C 398.919 220.208,398.996 220.610,399.090 220.119 C 399.185 219.628,399.185 218.826,399.090 218.335 C 398.996 217.844,398.919 218.246,398.919 219.227 M0.901 220.020 C 0.901 221.001,0.978 221.402,1.073 220.912 C 1.167 220.421,1.167 219.618,1.073 219.128 C 0.978 218.637,0.901 219.039,0.901 220.020 M139.089 220.517 C 139.289 220.716,139.875 220.813,140.390 220.732 C 141.184 220.607,141.128 220.552,140.027 220.369 C 139.239 220.239,138.870 220.297,139.089 220.517 M398.514 222.993 C 398.519 223.865,398.600 224.175,398.695 223.682 C 398.789 223.189,398.786 222.475,398.687 222.096 C 398.587 221.717,398.510 222.121,398.514 222.993 M184.097 226.759 C 184.097 229.485,184.161 230.600,184.238 229.237 C 184.315 227.874,184.315 225.644,184.238 224.281 C 184.161 222.919,184.097 224.034,184.097 226.759 M1.289 223.786 C 1.294 224.658,1.375 224.968,1.470 224.475 C 1.565 223.982,1.561 223.268,1.462 222.889 C 1.362 222.510,1.285 222.914,1.289 223.786 M197.193 232.904 C 197.193 237.265,197.251 239.103,197.322 236.988 C 197.393 234.874,197.393 231.306,197.323 229.060 C 197.252 226.813,197.194 228.543,197.193 232.904 M398.110 226.363 C 398.110 227.126,398.191 227.438,398.291 227.056 C 398.391 226.675,398.391 226.051,398.291 225.669 C 398.191 225.287,398.110 225.600,398.110 226.363 M88.955 231.318 C 88.956 234.153,89.019 235.260,89.095 233.779 C 89.172 232.299,89.171 229.979,89.094 228.626 C 89.017 227.272,88.954 228.484,88.955 231.318 M397.713 229.138 C 397.713 229.901,397.795 230.213,397.895 229.832 C 397.994 229.450,397.994 228.826,397.895 228.444 C 397.795 228.062,397.713 228.375,397.713 229.138 M264.024 231.715 C 264.763 232.478,265.458 233.102,265.567 233.102 C 265.676 233.102,265.160 232.478,264.420 231.715 C 263.681 230.951,262.986 230.327,262.877 230.327 C 262.768 230.327,263.284 230.951,264.024 231.715 M232.611 232.590 C 233.104 232.684,233.818 232.681,234.197 232.582 C 234.576 232.482,234.172 232.405,233.300 232.409 C 232.428 232.414,232.118 232.495,232.611 232.590 M184.080 240.436 C 184.082 242.180,184.152 242.845,184.235 241.912 C 184.319 240.980,184.318 239.553,184.233 238.741 C 184.147 237.929,184.079 238.692,184.080 240.436 M230.419 239.445 C 230.419 240.208,230.501 240.520,230.600 240.139 C 230.700 239.757,230.700 239.133,230.600 238.751 C 230.501 238.370,230.419 238.682,230.419 239.445 M4.043 240.833 C 4.043 241.269,4.186 242.071,4.361 242.616 C 4.612 243.401,4.678 243.442,4.678 242.815 C 4.678 242.379,4.535 241.576,4.361 241.031 C 4.109 240.246,4.043 240.205,4.043 240.833 M269.269 243.409 C 269.269 244.172,269.351 244.485,269.451 244.103 C 269.550 243.722,269.550 243.097,269.451 242.716 C 269.351 242.334,269.269 242.646,269.269 243.409 M161.448 247.572 C 161.452 248.444,161.533 248.754,161.628 248.261 C 161.723 247.768,161.719 247.054,161.620 246.675 C 161.521 246.296,161.443 246.700,161.448 247.572 M242.996 248.662 C 243.968 249.698,244.816 250.545,244.879 250.545 C 245.177 250.545,244.862 250.189,243.112 248.546 L 241.229 246.779 242.996 248.662 M222.458 249.537 C 222.420 250.286,221.863 251.290,220.918 252.312 L 219.438 253.915 221.149 252.291 C 222.561 250.950,222.830 250.467,222.688 249.516 L 222.517 248.365 222.458 249.537 M231.624 251.734 C 231.624 252.716,231.702 253.117,231.796 252.626 C 231.891 252.136,231.891 251.333,231.796 250.842 C 231.702 250.352,231.624 250.753,231.624 251.734 M133.697 251.215 C 134.078 251.315,134.703 251.315,135.084 251.215 C 135.466 251.115,135.154 251.033,134.390 251.033 C 133.627 251.033,133.315 251.115,133.697 251.215 M112.289 251.634 C 115.505 251.701,120.768 251.701,123.984 251.634 C 127.200 251.568,124.569 251.513,118.137 251.513 C 111.705 251.513,109.073 251.568,112.289 251.634 M59.960 252.008 C 60.342 252.107,60.966 252.107,61.348 252.008 C 61.729 251.908,61.417 251.826,60.654 251.826 C 59.891 251.826,59.579 251.908,59.960 252.008 M392.694 252.754 C 392.549 253.335,392.506 253.887,392.599 253.980 C 392.693 254.073,392.888 253.675,393.034 253.094 C 393.180 252.513,393.223 251.961,393.129 251.867 C 393.036 251.774,392.840 252.173,392.694 252.754 M7.984 256.492 C 7.984 256.819,8.138 257.443,8.325 257.879 C 8.540 258.379,8.666 258.452,8.666 258.077 C 8.666 257.750,8.512 257.126,8.325 256.690 C 8.110 256.190,7.984 256.117,7.984 256.492 M155.401 256.888 L 150.842 257.126 155.279 257.205 C 157.898 257.252,159.816 257.122,159.960 256.888 C 160.095 256.670,160.150 256.527,160.083 256.571 C 160.015 256.614,157.909 256.757,155.401 256.888 M83.771 257.581 C 87.000 257.648,92.173 257.648,95.267 257.581 C 98.361 257.514,95.719 257.459,89.395 257.459 C 83.072 257.460,80.541 257.514,83.771 257.581 M68.087 257.971 C 69.014 258.055,70.530 258.055,71.457 257.971 C 72.384 257.888,71.625 257.819,69.772 257.819 C 67.919 257.819,67.161 257.888,68.087 257.971 M390.316 260.682 C 390.170 261.263,390.127 261.815,390.221 261.909 C 390.314 262.002,390.510 261.603,390.656 261.022 C 390.801 260.441,390.844 259.889,390.751 259.796 C 390.657 259.703,390.462 260.101,390.316 260.682 M9.959 262.834 C 9.952 263.162,10.192 263.964,10.491 264.618 C 11.192 266.149,11.202 265.437,10.505 263.627 C 10.212 262.864,9.966 262.507,9.959 262.834 M388.548 266.050 C 388.303 266.751,388.173 267.393,388.258 267.478 C 388.342 267.563,388.612 267.059,388.856 266.358 C 389.100 265.658,389.231 265.015,389.146 264.930 C 389.061 264.846,388.792 265.349,388.548 266.050 M12.120 269.177 C 12.266 269.722,12.551 270.436,12.753 270.763 C 13.008 271.176,13.039 271.055,12.855 270.367 C 12.709 269.822,12.425 269.108,12.223 268.781 C 11.967 268.368,11.936 268.489,12.120 269.177 M384.207 277.321 C 383.543 278.779,383.670 279.090,384.388 277.765 C 384.723 277.146,384.923 276.565,384.833 276.475 C 384.742 276.384,384.461 276.765,384.207 277.321 M15.489 277.701 C 15.489 277.919,15.744 278.543,16.056 279.088 C 16.367 279.633,16.622 279.901,16.622 279.683 C 16.622 279.465,16.367 278.840,16.056 278.295 C 15.744 277.750,15.489 277.483,15.489 277.701 M383.018 280.096 C 382.354 281.554,382.480 281.865,383.199 280.540 C 383.534 279.921,383.734 279.340,383.643 279.250 C 383.553 279.159,383.271 279.540,383.018 280.096 M17.080 281.269 C 17.080 281.487,17.422 282.289,17.839 283.053 C 18.257 283.816,18.599 284.262,18.599 284.044 C 18.599 283.826,18.257 283.023,17.839 282.260 C 17.422 281.497,17.080 281.051,17.080 281.269 M381.046 284.459 C 379.852 286.917,379.985 287.262,381.215 284.897 C 381.765 283.840,382.147 282.907,382.064 282.824 C 381.981 282.741,381.523 283.477,381.046 284.459 M20.218 287.955 C 20.218 288.385,22.188 292.170,22.412 292.170 C 22.521 292.170,22.140 291.234,21.565 290.089 C 20.459 287.888,20.218 287.506,20.218 287.955 M376.412 293.756 C 375.860 294.846,375.497 295.738,375.606 295.738 C 375.715 295.738,376.256 294.846,376.809 293.756 C 377.361 292.666,377.724 291.774,377.615 291.774 C 377.506 291.774,376.965 292.666,376.412 293.756 M24.182 295.738 C 24.627 296.611,25.081 297.324,25.190 297.324 C 25.299 297.324,25.024 296.611,24.579 295.738 C 24.134 294.866,23.681 294.153,23.572 294.153 C 23.463 294.153,23.737 294.866,24.182 295.738 M374.034 298.117 C 373.695 298.771,373.508 299.306,373.617 299.306 C 373.726 299.306,374.092 298.771,374.430 298.117 C 374.768 297.463,374.956 296.928,374.847 296.928 C 374.738 296.928,374.372 297.463,374.034 298.117 M27.552 301.685 C 27.890 302.339,28.256 302.874,28.365 302.874 C 28.474 302.874,28.287 302.339,27.948 301.685 C 27.610 301.031,27.244 300.496,27.135 300.496 C 27.026 300.496,27.214 301.031,27.552 301.685 M371.409 302.577 C 371.150 303.067,370.678 303.915,370.362 304.460 C 369.811 305.411,369.815 305.419,370.454 304.658 C 371.244 303.718,372.353 301.685,372.076 301.685 C 371.969 301.685,371.669 302.086,371.409 302.577 M369.229 306.145 C 367.865 308.460,367.776 308.658,368.471 307.830 C 369.276 306.870,369.970 305.649,369.710 305.649 C 369.606 305.649,369.390 305.872,369.229 306.145 M30.736 306.838 C 31.482 308.194,35.715 314.371,35.898 314.371 C 36.119 314.371,31.442 307.263,30.811 306.640 C 30.540 306.373,30.516 306.438,30.736 306.838 M363.528 314.767 C 363.062 315.421,362.771 315.956,362.880 315.956 C 362.989 315.956,363.459 315.421,363.925 314.767 C 364.390 314.113,364.682 313.578,364.573 313.578 C 364.464 313.578,363.994 314.113,363.528 314.767 M359.605 320.119 C 358.048 322.190,356.859 323.885,356.962 323.885 C 357.065 323.885,358.257 322.413,359.611 320.614 C 360.964 318.816,362.243 317.121,362.452 316.848 C 362.661 316.576,362.743 316.353,362.634 316.353 C 362.525 316.353,361.162 318.048,359.605 320.119 M39.271 319.300 C 39.965 320.267,41.057 321.649,41.697 322.372 C 42.337 323.095,41.847 322.304,40.609 320.614 C 39.371 318.925,38.279 317.542,38.183 317.542 C 38.087 317.542,38.576 318.333,39.271 319.300 M45.050 326.759 C 45.483 327.250,47.552 329.613,49.648 332.012 C 51.743 334.410,56.277 339.138,59.723 342.517 C 65.804 348.481,65.767 348.435,58.446 340.932 C 54.297 336.680,49.506 331.551,47.800 329.534 C 46.093 327.517,44.599 325.867,44.480 325.867 C 44.360 325.867,44.617 326.269,45.050 326.759 M352.793 328.741 C 351.619 330.104,350.974 330.970,351.358 330.665 C 352.165 330.024,355.364 326.264,355.101 326.264 C 355.005 326.264,353.966 327.379,352.793 328.741 M340.988 341.274 C 335.677 346.646,332.109 350.330,333.059 349.462 C 338.429 344.554,351.567 331.214,350.785 331.462 C 350.708 331.487,346.299 335.902,340.988 341.274 M66.558 348.975 C 67.218 349.809,71.754 353.774,71.754 353.516 C 71.754 353.417,70.461 352.198,68.880 350.806 C 67.299 349.415,66.255 348.590,66.558 348.975 M328.444 353.087 C 326.235 355.142,326.210 355.184,328.088 353.678 C 329.929 352.202,331.342 350.819,330.970 350.858 C 330.889 350.866,329.752 351.869,328.444 353.087 M72.448 354.071 C 73.030 354.797,77.701 358.511,77.701 358.247 C 77.701 358.148,76.407 357.029,74.827 355.760 C 73.246 354.491,72.175 353.731,72.448 354.071 M320.317 359.416 C 317.321 361.708,315.049 363.661,316.749 362.483 C 318.650 361.167,323.885 357.121,323.885 356.969 C 323.885 356.687,323.876 356.693,320.317 359.416 M78.377 358.812 C 78.915 359.479,82.458 362.087,82.458 361.817 C 82.458 361.720,81.432 360.872,80.178 359.931 C 78.925 358.990,78.114 358.486,78.377 358.812 M82.854 362.087 C 82.854 362.196,83.389 362.666,84.044 363.132 C 84.698 363.598,85.233 363.889,85.233 363.780 C 85.233 363.671,84.698 363.201,84.044 362.735 C 83.389 362.270,82.854 361.978,82.854 362.087 M314.569 363.761 L 313.380 364.783 314.668 363.930 C 315.377 363.462,315.956 363.001,315.956 362.907 C 315.956 362.610,315.789 362.713,314.569 363.761 M86.819 364.898 C 86.819 365.000,87.844 365.774,89.098 366.616 C 91.875 368.481,92.369 368.776,92.369 368.565 C 92.369 368.475,91.120 367.571,89.594 366.556 C 88.067 365.542,86.819 364.795,86.819 364.898 M306.104 369.262 C 303.480 370.933,302.933 371.480,305.055 370.310 C 306.656 369.426,308.790 367.906,308.424 367.908 C 308.315 367.909,307.271 368.518,306.104 369.262 M300.793 372.477 C 299.311 373.281,299.401 373.615,300.892 372.844 C 301.546 372.506,302.081 372.145,302.081 372.041 C 302.081 371.786,302.039 371.801,300.793 372.477 M99.901 373.220 C 99.901 373.329,100.436 373.695,101.090 374.034 C 101.744 374.372,102.279 374.560,102.279 374.450 C 102.279 374.341,101.744 373.976,101.090 373.637 C 100.436 373.299,99.901 373.111,99.901 373.220 M298.018 374.062 C 296.536 374.866,296.626 375.201,298.117 374.430 C 298.771 374.092,299.306 373.731,299.306 373.627 C 299.306 373.372,299.264 373.386,298.018 374.062 M103.469 375.207 C 103.469 375.316,104.182 375.769,105.055 376.214 C 105.927 376.659,106.640 376.934,106.640 376.825 C 106.640 376.716,105.927 376.263,105.055 375.818 C 104.182 375.373,103.469 375.098,103.469 375.207 M294.054 376.239 C 292.800 376.887,291.774 377.505,291.774 377.614 C 291.774 377.722,292.844 377.271,294.153 376.611 C 295.461 375.950,296.531 375.323,296.531 375.217 C 296.531 374.953,296.605 374.923,294.054 376.239 M284.242 381.169 C 283.261 381.695,282.636 382.125,282.854 382.125 C 283.072 382.125,284.054 381.695,285.035 381.169 C 286.016 380.644,286.640 380.214,286.422 380.214 C 286.204 380.214,285.223 380.644,284.242 381.169 M116.155 381.764 C 116.918 382.182,117.721 382.524,117.939 382.524 C 118.157 382.524,117.711 382.182,116.947 381.764 C 116.184 381.346,115.382 381.004,115.164 381.004 C 114.945 381.004,115.391 381.346,116.155 381.764 M279.881 383.152 C 279.336 383.463,279.068 383.718,279.286 383.718 C 279.504 383.718,280.129 383.463,280.674 383.152 C 281.219 382.840,281.487 382.585,281.269 382.585 C 281.051 382.585,280.426 382.840,279.881 383.152 M120.119 383.548 C 120.664 383.860,121.288 384.115,121.506 384.115 C 121.724 384.115,121.457 383.860,120.912 383.548 C 120.367 383.236,119.742 382.982,119.524 382.982 C 119.306 382.982,119.574 383.236,120.119 383.548 M277.106 384.341 C 276.561 384.653,276.293 384.907,276.511 384.907 C 276.729 384.907,277.354 384.653,277.899 384.341 C 278.444 384.029,278.712 383.774,278.494 383.774 C 278.276 383.774,277.651 384.029,277.106 384.341 M124.083 385.049 C 124.083 385.323,129.295 387.388,129.491 387.192 C 129.578 387.105,128.709 386.668,127.560 386.221 C 126.411 385.775,125.159 385.283,124.777 385.130 C 124.395 384.976,124.083 384.940,124.083 385.049 M131.615 388.040 C 131.943 388.242,132.656 388.527,133.201 388.673 C 133.890 388.857,134.011 388.826,133.598 388.570 C 133.271 388.368,132.557 388.084,132.012 387.938 C 131.323 387.754,131.202 387.785,131.615 388.040 M265.808 388.716 C 264.816 389.193,264.783 389.248,265.610 389.046 C 266.733 388.772,267.995 388.128,267.393 388.137 C 267.175 388.140,266.462 388.401,265.808 388.716 M260.258 390.486 C 259.758 390.700,259.685 390.826,260.059 390.826 C 260.387 390.826,261.011 390.673,261.447 390.486 C 261.947 390.271,262.020 390.145,261.645 390.145 C 261.318 390.145,260.694 390.298,260.258 390.486 M139.742 390.882 C 140.178 391.069,140.803 391.223,141.130 391.223 C 141.505 391.223,141.431 391.097,140.932 390.882 C 140.496 390.695,139.871 390.541,139.544 390.541 C 139.169 390.541,139.243 390.667,139.742 390.882 M146.482 392.864 C 146.918 393.052,147.542 393.205,147.869 393.205 C 148.244 393.205,148.171 393.079,147.671 392.864 C 147.235 392.677,146.611 392.524,146.283 392.524 C 145.909 392.524,145.982 392.649,146.482 392.864 M252.329 392.864 C 251.829 393.079,251.756 393.205,252.131 393.205 C 252.458 393.205,253.082 393.052,253.518 392.864 C 254.018 392.649,254.091 392.524,253.717 392.524 C 253.389 392.524,252.765 392.677,252.329 392.864 M228.444 397.895 C 228.826 397.994,229.450 397.994,229.832 397.895 C 230.213 397.795,229.901 397.713,229.138 397.713 C 228.375 397.713,228.062 397.795,228.444 397.895 M172.944 398.291 C 173.325 398.391,173.949 398.391,174.331 398.291 C 174.713 398.191,174.400 398.110,173.637 398.110 C 172.874 398.110,172.562 398.191,172.944 398.291 M225.669 398.291 C 226.051 398.391,226.675 398.391,227.056 398.291 C 227.438 398.191,227.126 398.110,226.363 398.110 C 225.600 398.110,225.287 398.191,225.669 398.291 M176.115 398.688 C 176.497 398.787,177.121 398.787,177.502 398.688 C 177.884 398.588,177.572 398.506,176.809 398.506 C 176.046 398.506,175.733 398.588,176.115 398.688 M222.304 398.695 C 222.797 398.789,223.511 398.786,223.890 398.687 C 224.269 398.587,223.865 398.510,222.993 398.514 C 222.121 398.519,221.811 398.600,222.304 398.695 M179.881 399.090 C 180.372 399.185,181.174 399.185,181.665 399.090 C 182.156 398.996,181.754 398.919,180.773 398.919 C 179.792 398.919,179.390 398.996,179.881 399.090 M218.335 399.090 C 218.826 399.185,219.628 399.185,220.119 399.090 C 220.610 398.996,220.208 398.919,219.227 398.919 C 218.246 398.919,217.844 398.996,218.335 399.090 M184.440 399.491 C 185.040 399.582,186.021 399.582,186.620 399.491 C 187.220 399.400,186.729 399.326,185.530 399.326 C 184.331 399.326,183.840 399.400,184.440 399.491 M213.585 399.494 C 214.297 399.583,215.368 399.581,215.963 399.490 C 216.559 399.400,215.976 399.328,214.668 399.330 C 213.360 399.332,212.872 399.406,213.585 399.494 M194.351 399.900 C 197.349 399.967,202.255 399.967,205.253 399.900 C 208.251 399.833,205.798 399.777,199.802 399.777 C 193.806 399.777,191.353 399.833,194.351 399.900 " stroke="none" fill="#ed9a54" fill-rule="evenodd"></path><path id="path1" d="M189.098 0.408 C 146.488 2.800,106.665 18.301,73.142 45.544 C 71.397 46.961,69.881 48.221,69.772 48.343 C 69.663 48.465,68.860 49.164,67.988 49.897 C 9.636 98.932,-14.316 185.338,9.567 260.654 C 40.699 358.831,142.714 417.440,243.409 394.999 C 347.569 371.787,414.585 271.544,396.784 165.581 C 380.186 66.780,289.636 -5.235,189.098 0.408 M81.467 138.756 C 93.023 138.993,103.301 139.086,104.306 138.963 C 106.369 138.710,123.716 138.691,140.920 138.924 C 155.287 139.118,154.456 138.547,153.362 147.473 C 153.030 150.182,153.007 153.242,153.281 158.375 C 153.715 166.521,153.633 166.898,151.431 166.898 C 149.622 166.898,149.227 166.313,146.886 160.179 C 144.019 152.667,140.412 146.450,138.415 145.579 C 136.904 144.920,97.650 144.689,93.046 145.312 C 89.270 145.823,89.066 147.382,89.427 172.909 L 89.700 192.201 93.908 192.488 C 100.583 192.944,131.175 192.152,132.516 191.489 C 133.855 190.827,134.513 188.789,135.363 182.672 C 136.241 176.346,137.410 174.034,139.728 174.034 C 141.551 174.034,142.461 174.856,142.410 176.456 C 141.911 192.090,141.878 204.227,142.316 210.927 C 142.870 219.413,142.754 220.193,140.859 220.668 C 138.827 221.178,138.115 219.756,135.377 209.713 C 133.494 202.803,131.925 200.382,128.701 199.405 C 126.978 198.883,94.437 198.761,90.857 199.263 L 89.148 199.503 89.280 223.736 C 89.423 249.996,89.391 249.633,91.642 250.582 C 93.880 251.526,134.628 251.388,139.114 250.421 C 147.397 248.635,150.323 245.734,156.464 233.216 C 159.709 226.600,161.297 224.381,162.785 224.381 C 163.414 224.381,165.709 225.472,165.709 225.772 C 165.709 225.871,165.188 227.874,164.551 230.221 C 162.827 236.577,162.210 240.315,161.708 247.462 C 161.397 251.873,161.034 254.428,160.558 255.536 L 159.863 257.158 119.674 257.418 C 97.570 257.561,74.133 257.787,67.592 257.921 C 54.192 258.194,54.153 258.187,54.153 255.538 C 54.153 252.682,54.965 252.385,65.548 251.363 C 70.685 250.868,71.786 250.418,72.247 248.629 C 72.670 246.984,72.393 148.888,71.960 147.331 C 71.496 145.661,69.775 145.134,62.802 144.527 C 55.416 143.885,54.071 143.073,55.169 139.924 C 55.690 138.430,56.760 137.917,58.870 138.150 C 59.742 138.247,69.911 138.520,81.467 138.756 M198.031 170.763 C 198.192 173.979,198.215 178.528,198.081 180.872 L 197.838 185.134 199.712 185.124 C 200.743 185.119,204.708 184.946,208.523 184.740 C 212.339 184.534,216.955 184.478,218.781 184.614 L 222.102 184.862 221.917 188.699 C 221.816 190.810,221.621 192.716,221.485 192.936 C 221.335 193.179,216.693 193.446,209.638 193.618 C 203.258 193.774,197.945 193.995,197.830 194.109 C 197.218 194.721,197.407 241.688,198.033 244.515 C 198.820 248.065,200.577 250.185,203.370 250.954 C 206.148 251.718,213.357 250.307,216.462 248.391 C 221.973 244.989,225.303 248.570,220.614 252.855 C 211.055 261.592,192.653 261.746,186.732 253.139 C 184.137 249.369,184.128 249.252,184.273 220.255 L 184.402 194.128 179.422 194.394 C 174.764 194.643,174.390 194.608,173.643 193.861 C 171.715 191.933,172.937 189.622,176.903 187.691 C 183.719 184.375,187.425 180.001,190.860 171.225 C 193.531 164.402,193.143 164.916,195.612 164.916 L 197.737 164.916 198.031 170.763 M266.601 181.141 C 272.634 182.738,274.600 183.934,274.891 186.183 C 275.208 188.628,275.909 198.685,275.913 200.847 L 275.917 202.487 274.128 202.755 C 272.088 203.061,270.763 202.764,270.763 202.001 C 270.763 200.278,267.292 194.674,264.530 191.940 C 255.081 182.583,242.563 185.472,242.488 197.027 C 242.451 202.674,245.132 205.632,254.039 209.772 C 274.210 219.148,279.066 224.186,279.773 236.472 C 280.869 255.523,260.785 265.602,237.324 257.776 C 231.948 255.983,232.016 256.084,231.295 248.893 C 229.845 234.432,229.999 232.735,232.786 232.420 L 234.550 232.222 235.865 235.734 C 242.142 252.498,254.385 259.304,264.533 251.671 C 274.720 244.010,268.823 231.640,251.536 224.408 C 234.807 217.409,229.833 211.648,230.410 199.938 C 230.872 190.562,236.426 184.077,246.657 180.969 C 250.988 179.654,261.317 179.743,266.601 181.141 M320.535 183.780 C 324.000 184.049,324.288 184.227,324.562 186.264 C 324.837 188.314,323.845 188.840,318.490 189.489 C 311.205 190.371,310.283 190.924,311.387 193.748 C 311.709 194.570,312.609 197.384,313.389 200.000 C 317.249 212.953,328.145 245.691,328.462 245.287 C 329.721 243.684,341.207 210.976,343.113 203.568 C 346.083 192.022,345.948 191.686,337.364 189.278 C 332.293 187.856,330.045 185.274,332.790 184.024 C 334.847 183.086,363.353 183.373,364.321 184.341 C 366.422 186.442,365.016 188.506,360.955 189.283 C 355.499 190.327,353.630 191.662,352.330 195.441 C 350.815 199.842,347.385 209.295,343.121 220.813 C 337.002 237.345,328.166 261.553,326.264 266.997 C 316.910 293.770,313.819 299.397,306.645 302.712 C 297.258 307.048,288.672 300.169,293.803 292.422 C 295.901 289.255,297.275 288.992,305.335 290.215 C 308.535 290.700,308.844 290.686,309.578 290.023 C 312.214 287.636,318.155 274.935,320.351 266.989 C 321.594 262.492,321.348 261.477,314.156 241.427 C 310.755 231.943,306.367 219.544,304.406 213.875 C 302.445 208.206,299.911 200.892,298.775 197.621 L 296.709 191.675 294.935 190.816 C 293.960 190.344,292.180 189.650,290.981 189.274 C 286.765 187.953,286.315 187.483,286.797 184.911 L 287.049 183.568 293.277 183.459 C 301.327 183.318,316.949 183.502,320.535 183.780 " stroke="none" fill="#040404" fill-rule="evenodd"></path><path id="path2" d="" stroke="none" fill="#5c2c04" fill-rule="evenodd"></path><path id="path3" d="" stroke="none" fill="#944c0c" fill-rule="evenodd"></path><path id="path4" d="M58.672 58.474 C 57.709 59.455,57.010 60.258,57.119 60.258 C 57.228 60.258,58.105 59.455,59.068 58.474 C 60.031 57.493,60.730 56.690,60.621 56.690 C 60.512 56.690,59.635 57.493,58.672 58.474 " stroke="none" fill="#1c0c04" fill-rule="evenodd"></path></g></svg>