<svg id="svg" version="1.1" xmlns="http://www.w3.org/2000/svg" xmlns:xlink="http://www.w3.org/1999/xlink" width="400" height="400.81632653061223" viewBox="0, 0, 400,400.81632653061223"><g id="svgg"><path id="path0" d="M124.700 0.298 C 126.735 0.371,130.065 0.371,132.100 0.298 C 134.135 0.225,132.470 0.166,128.400 0.166 C 124.330 0.166,122.665 0.225,124.700 0.298 M209.900 0.300 C 219.635 0.360,235.565 0.360,245.300 0.300 C 255.035 0.240,247.070 0.191,227.600 0.191 C 208.130 0.191,200.165 0.240,209.900 0.300 M108.705 0.683 C 109.202 0.779,109.922 0.775,110.305 0.675 C 110.687 0.575,110.280 0.496,109.400 0.501 C 108.520 0.505,108.207 0.587,108.705 0.683 M282.300 0.689 C 283.015 0.778,284.185 0.778,284.900 0.689 C 285.615 0.601,285.030 0.528,283.600 0.528 C 282.170 0.528,281.585 0.601,282.300 0.689 M291.300 1.076 C 291.685 1.176,292.315 1.176,292.700 1.076 C 293.085 0.975,292.770 0.893,292.000 0.893 C 291.230 0.893,290.915 0.975,291.300 1.076 M97.245 3.294 C 95.839 3.996,93.859 5.354,92.845 6.311 L 91.000 8.051 93.166 6.402 C 95.517 4.612,96.925 3.782,99.400 2.727 C 100.280 2.352,100.730 2.038,100.400 2.031 C 100.070 2.023,98.650 2.591,97.245 3.294 M302.184 2.812 C 303.529 3.337,305.106 4.519,307.084 6.483 C 308.688 8.076,310.000 9.188,310.000 8.953 C 310.000 7.496,302.695 1.996,300.800 2.027 C 300.470 2.033,301.093 2.386,302.184 2.812 M88.618 10.500 C 86.745 12.632,84.392 16.805,84.409 17.964 C 84.415 18.314,84.852 17.546,85.382 16.259 C 86.209 14.246,87.250 12.741,90.332 9.100 C 91.789 7.379,90.269 8.620,88.618 10.500 M312.869 12.600 C 313.666 13.700,314.605 15.230,314.955 16.000 C 315.356 16.882,315.503 17.030,315.353 16.400 C 315.062 15.179,313.004 11.859,312.088 11.131 C 311.721 10.839,312.073 11.500,312.869 12.600 M83.301 26.600 C 83.305 27.480,83.387 27.793,83.483 27.295 C 83.579 26.798,83.575 26.078,83.475 25.695 C 83.375 25.313,83.296 25.720,83.301 26.600 M316.909 28.400 C 316.909 29.390,316.987 29.795,317.082 29.300 C 317.178 28.805,317.178 27.995,317.082 27.500 C 316.987 27.005,316.909 27.410,316.909 28.400 M122.700 28.282 C 123.195 28.378,124.005 28.378,124.500 28.282 C 124.995 28.187,124.590 28.109,123.600 28.109 C 122.610 28.109,122.205 28.187,122.700 28.282 M182.880 28.880 C 182.296 29.464,182.258 30.000,182.800 30.000 C 183.020 30.000,183.200 29.745,183.200 29.433 C 183.200 29.122,183.425 28.776,183.700 28.665 C 183.975 28.554,184.011 28.449,183.780 28.432 C 183.549 28.414,183.144 28.616,182.880 28.880 M221.000 29.386 C 220.340 29.688,220.070 29.943,220.400 29.953 C 220.730 29.963,221.450 29.714,222.000 29.400 C 223.273 28.672,222.580 28.662,221.000 29.386 M236.568 30.420 C 237.626 31.092,238.576 31.558,238.678 31.456 C 238.883 31.250,235.529 29.200,234.987 29.200 C 234.798 29.200,235.509 29.749,236.568 30.420 M269.505 29.483 C 270.002 29.579,270.722 29.575,271.105 29.475 C 271.487 29.375,271.080 29.296,270.200 29.301 C 269.320 29.305,269.007 29.387,269.505 29.483 M276.305 29.483 C 276.802 29.579,277.522 29.575,277.905 29.475 C 278.287 29.375,277.880 29.296,277.000 29.301 C 276.120 29.305,275.807 29.387,276.305 29.483 M133.456 30.369 C 134.147 30.790,134.833 31.330,134.980 31.568 C 135.127 31.805,135.439 32.000,135.673 32.000 C 136.324 32.000,135.221 30.831,133.949 30.174 C 132.333 29.338,131.989 29.474,133.456 30.369 M288.800 32.040 C 289.570 32.500,290.965 33.617,291.900 34.522 C 292.835 35.426,293.600 35.983,293.600 35.758 C 293.600 34.929,288.887 31.198,287.844 31.201 C 287.600 31.202,288.030 31.580,288.800 32.040 M109.208 33.392 C 108.241 34.377,107.529 35.257,107.625 35.346 C 107.721 35.436,108.580 34.630,109.533 33.555 C 111.700 31.110,111.531 31.025,109.208 33.392 M216.043 32.423 C 215.517 32.861,215.171 33.305,215.275 33.408 C 215.379 33.512,215.886 33.148,216.401 32.598 C 217.524 31.404,217.362 31.325,216.043 32.423 M239.420 32.306 C 239.629 32.474,240.340 33.059,241.000 33.605 L 242.200 34.597 241.025 33.299 C 240.379 32.584,239.668 32.000,239.445 32.000 C 239.194 32.000,239.184 32.116,239.420 32.306 M182.243 33.033 C 181.846 34.068,181.967 37.600,182.400 37.600 C 182.626 37.600,182.800 36.467,182.800 35.000 C 182.800 32.350,182.675 31.907,182.243 33.033 M134.168 36.900 C 133.644 38.060,133.114 38.641,132.500 38.728 C 131.444 38.878,131.276 39.603,132.300 39.594 C 133.524 39.583,134.685 38.125,135.044 36.148 C 135.296 34.759,135.035 34.983,134.168 36.900 M152.183 51.400 C 152.183 60.420,152.235 64.167,152.299 59.727 C 152.364 55.287,152.364 47.907,152.300 43.327 C 152.235 38.747,152.183 42.380,152.183 51.400 M225.600 37.200 C 225.600 37.420,226.320 37.600,227.200 37.600 C 228.080 37.600,228.800 37.420,228.800 37.200 C 228.800 36.980,228.080 36.800,227.200 36.800 C 226.320 36.800,225.600 36.980,225.600 37.200 M82.984 55.200 C 82.984 65.210,83.036 69.305,83.100 64.300 C 83.163 59.295,83.163 51.105,83.100 46.100 C 83.036 41.095,82.984 45.190,82.984 55.200 M229.600 37.358 C 229.600 37.445,230.320 37.873,231.200 38.308 C 233.026 39.211,233.422 38.742,231.620 37.810 C 230.486 37.224,229.600 37.026,229.600 37.358 M119.400 38.000 C 119.536 38.220,119.907 38.400,120.224 38.400 C 120.541 38.400,120.800 38.220,120.800 38.000 C 120.800 37.780,120.429 37.600,119.976 37.600 C 119.523 37.600,119.264 37.780,119.400 38.000 M123.600 38.000 C 123.600 38.220,123.960 38.400,124.400 38.400 C 124.840 38.400,125.200 38.220,125.200 38.000 C 125.200 37.780,124.840 37.600,124.400 37.600 C 123.960 37.600,123.600 37.780,123.600 38.000 M117.377 38.567 C 116.950 38.879,116.718 39.252,116.862 39.395 C 117.158 39.691,118.800 38.767,118.800 38.304 C 118.800 37.836,118.233 37.941,117.377 38.567 M127.000 38.400 C 127.136 38.620,127.507 38.800,127.824 38.800 C 128.141 38.800,128.400 38.620,128.400 38.400 C 128.400 38.180,128.029 38.000,127.576 38.000 C 127.123 38.000,126.864 38.180,127.000 38.400 M129.600 38.800 C 129.600 39.020,129.870 39.200,130.200 39.200 C 130.530 39.200,130.800 39.020,130.800 38.800 C 130.800 38.580,130.530 38.400,130.200 38.400 C 129.870 38.400,129.600 38.580,129.600 38.800 M221.946 39.098 C 220.522 40.817,220.361 41.294,221.604 40.113 C 222.349 39.405,222.862 38.729,222.744 38.610 C 222.625 38.492,222.267 38.711,221.946 39.098 M279.600 38.800 C 279.600 39.020,279.870 39.200,280.200 39.200 C 280.530 39.200,280.800 39.020,280.800 38.800 C 280.800 38.580,280.530 38.400,280.200 38.400 C 279.870 38.400,279.600 38.580,279.600 38.800 M233.200 39.130 C 233.200 39.312,233.682 39.897,234.271 40.430 L 235.342 41.400 234.444 40.100 C 233.537 38.788,233.200 38.525,233.200 39.130 M281.203 39.100 C 281.205 39.265,281.932 39.815,282.820 40.322 C 284.320 41.178,284.399 41.188,283.938 40.450 C 283.298 39.424,281.196 38.387,281.203 39.100 M245.228 39.800 C 245.228 40.020,245.486 40.650,245.800 41.200 C 246.114 41.750,246.372 42.020,246.372 41.800 C 246.372 41.580,246.114 40.950,245.800 40.400 C 245.486 39.850,245.228 39.580,245.228 39.800 M59.513 41.495 C 60.676 41.576,62.476 41.576,63.513 41.493 C 64.551 41.411,63.600 41.345,61.400 41.346 C 59.200 41.347,58.351 41.414,59.513 41.495 M330.887 55.300 C 330.935 63.055,331.024 67.150,331.085 64.400 C 331.367 51.731,331.373 41.199,331.100 41.200 C 330.935 41.200,330.839 47.545,330.887 55.300 M341.705 41.487 C 342.314 41.579,343.214 41.577,343.705 41.482 C 344.197 41.387,343.700 41.311,342.600 41.314 C 341.500 41.317,341.097 41.395,341.705 41.487 M296.000 43.200 C 296.000 43.947,296.107 44.053,296.480 43.680 C 296.853 43.307,296.853 43.093,296.480 42.720 C 296.107 42.347,296.000 42.453,296.000 43.200 M116.006 43.700 C 116.003 44.305,116.180 44.800,116.400 44.800 C 116.906 44.800,116.906 43.983,116.400 43.200 C 116.098 42.732,116.011 42.843,116.006 43.700 M36.112 46.235 C 32.373 48.191,28.132 51.053,27.179 52.263 C 26.810 52.733,27.107 52.624,28.000 51.963 C 32.084 48.942,33.814 47.837,37.024 46.199 C 38.963 45.210,40.340 44.400,40.085 44.400 C 39.829 44.400,38.041 45.226,36.112 46.235 M116.400 45.597 C 116.400 45.816,117.147 46.536,118.060 47.197 C 119.805 48.462,120.879 48.822,119.857 47.800 C 119.527 47.470,119.146 47.200,119.009 47.200 C 118.873 47.200,118.345 46.750,117.835 46.200 C 116.851 45.138,116.400 44.949,116.400 45.597 M364.977 46.944 C 369.766 49.558,374.014 53.141,376.884 56.988 C 379.769 60.855,380.590 61.286,377.895 57.518 C 374.748 53.118,369.727 48.892,364.513 46.255 C 361.178 44.568,361.500 45.046,364.977 46.944 M162.799 47.700 C 162.800 47.865,167.255 47.963,172.700 47.918 C 182.617 47.835,181.472 47.696,169.299 47.503 C 165.724 47.446,162.799 47.535,162.799 47.700 M296.000 48.824 C 296.000 49.277,296.180 49.536,296.400 49.400 C 296.620 49.264,296.800 48.893,296.800 48.576 C 296.800 48.259,296.620 48.000,296.400 48.000 C 296.180 48.000,296.000 48.371,296.000 48.824 M106.416 49.211 C 106.387 50.321,109.058 53.686,110.600 54.482 C 111.040 54.709,110.565 54.018,109.545 52.947 C 108.525 51.876,107.407 50.460,107.061 49.800 C 106.715 49.140,106.425 48.875,106.416 49.211 M283.970 51.053 C 283.436 51.632,282.460 52.442,281.800 52.852 C 281.140 53.262,280.798 53.598,281.041 53.599 C 281.735 53.601,284.058 51.892,284.708 50.900 C 285.500 49.692,285.158 49.763,283.970 51.053 M128.200 52.280 C 129.086 53.118,132.889 55.644,133.039 55.495 C 133.127 55.407,132.434 54.791,131.499 54.125 C 129.732 52.868,127.503 51.621,128.200 52.280 M238.924 55.000 C 238.926 56.320,239.001 56.812,239.090 56.093 C 239.179 55.374,239.177 54.294,239.086 53.693 C 238.995 53.092,238.922 53.680,238.924 55.000 M293.874 54.485 C 293.255 55.364,292.838 56.172,292.948 56.281 C 293.279 56.612,294.000 55.992,294.000 55.376 C 294.000 55.059,294.159 54.800,294.353 54.800 C 294.660 54.800,295.312 53.160,295.084 52.962 C 295.038 52.921,294.494 53.607,293.874 54.485 M216.000 55.200 C 216.000 56.080,216.180 56.800,216.400 56.800 C 216.620 56.800,216.800 56.080,216.800 55.200 C 216.800 54.320,216.620 53.600,216.400 53.600 C 216.180 53.600,216.000 54.320,216.000 55.200 M23.669 55.864 C 22.178 57.608,20.140 60.800,20.518 60.800 C 20.611 60.800,21.338 59.855,22.134 58.700 C 22.930 57.545,24.058 56.015,24.642 55.300 C 26.282 53.290,25.463 53.765,23.669 55.864 M112.800 55.941 C 112.800 56.254,116.426 58.400,116.954 58.400 C 117.788 58.400,116.893 57.616,115.000 56.688 C 113.790 56.094,112.800 55.758,112.800 55.941 M192.464 63.620 L 192.528 71.800 192.825 64.000 C 192.999 59.448,192.972 56.042,192.761 55.820 C 192.546 55.593,192.426 58.737,192.464 63.620 M291.400 57.600 C 290.999 58.043,290.762 58.495,290.872 58.605 C 290.982 58.715,291.399 58.443,291.800 58.000 C 292.201 57.557,292.438 57.105,292.328 56.995 C 292.218 56.885,291.801 57.157,291.400 57.600 M134.800 57.800 C 135.074 58.130,135.478 58.400,135.698 58.400 C 135.921 58.400,135.878 58.135,135.600 57.800 C 135.326 57.470,134.922 57.200,134.702 57.200 C 134.479 57.200,134.522 57.465,134.800 57.800 M162.800 57.700 C 162.799 58.089,164.965 58.175,172.600 58.086 C 178.558 58.017,182.400 57.821,182.400 57.586 C 182.400 57.348,178.636 57.200,172.600 57.200 C 165.027 57.200,162.800 57.314,162.800 57.700 M289.467 59.067 C 288.981 59.553,289.190 59.979,289.800 59.745 C 290.130 59.618,290.400 59.354,290.400 59.157 C 290.400 58.738,289.849 58.684,289.467 59.067 M120.007 59.497 C 120.011 59.663,121.316 60.487,122.907 61.326 C 124.498 62.166,125.530 62.599,125.200 62.289 C 124.324 61.466,119.999 59.140,120.007 59.497 M247.693 60.400 C 247.693 61.170,247.775 61.485,247.876 61.100 C 247.976 60.715,247.976 60.085,247.876 59.700 C 247.775 59.315,247.693 59.630,247.693 60.400 M136.006 59.900 C 136.021 60.611,136.705 61.278,136.974 60.843 C 137.124 60.599,137.046 60.400,136.800 60.400 C 136.554 60.400,136.464 60.220,136.600 60.000 C 136.736 59.780,136.657 59.600,136.424 59.600 C 136.191 59.600,136.003 59.735,136.006 59.900 M216.400 60.400 C 216.400 61.147,216.507 61.253,216.880 60.880 C 217.253 60.507,217.253 60.293,216.880 59.920 C 216.507 59.547,216.400 59.653,216.400 60.400 M380.000 61.600 C 380.235 62.040,380.608 62.400,380.828 62.400 C 381.085 62.400,381.075 62.115,380.800 61.600 C 380.565 61.160,380.192 60.800,379.972 60.800 C 379.715 60.800,379.725 61.085,380.000 61.600 M216.800 62.600 C 216.800 62.930,216.980 63.200,217.200 63.200 C 217.420 63.200,217.600 62.930,217.600 62.600 C 217.600 62.270,217.420 62.000,217.200 62.000 C 216.980 62.000,216.800 62.270,216.800 62.600 M18.210 63.980 C 17.515 65.325,17.467 65.600,17.926 65.600 C 18.105 65.600,18.552 64.970,18.919 64.200 C 19.726 62.508,19.076 62.307,18.210 63.980 M137.200 64.400 C 137.200 64.840,137.380 65.200,137.600 65.200 C 137.820 65.200,138.000 64.840,138.000 64.400 C 138.000 63.960,137.820 63.600,137.600 63.600 C 137.380 63.600,137.200 63.960,137.200 64.400 M236.563 66.485 C 236.143 67.417,235.097 69.084,234.239 70.190 C 232.886 71.931,232.842 72.047,233.906 71.056 C 235.117 69.930,237.844 65.311,237.501 64.968 C 237.404 64.871,236.982 65.554,236.563 66.485 M218.000 66.246 C 218.000 66.839,219.726 69.487,220.379 69.894 C 220.904 70.222,220.761 69.761,219.849 68.186 C 218.747 66.284,218.000 65.500,218.000 66.246 M382.818 66.834 C 383.064 67.293,383.344 67.589,383.442 67.492 C 383.722 67.212,383.154 66.000,382.743 66.000 C 382.539 66.000,382.573 66.375,382.818 66.834 M16.233 68.257 C 15.899 69.130,16.343 69.536,16.816 68.788 C 17.289 68.040,17.299 67.600,16.843 67.600 C 16.646 67.600,16.372 67.896,16.233 68.257 M137.200 68.400 C 137.200 68.840,137.380 69.200,137.600 69.200 C 137.820 69.200,138.000 68.840,138.000 68.400 C 138.000 67.960,137.820 67.600,137.600 67.600 C 137.380 67.600,137.200 67.960,137.200 68.400 M383.484 68.800 C 383.599 69.240,383.852 69.600,384.047 69.600 C 384.465 69.600,384.479 69.472,384.157 68.633 C 383.805 67.714,383.237 67.855,383.484 68.800 M182.006 71.300 C 182.009 72.675,182.187 74.070,182.400 74.400 C 182.669 74.816,182.790 74.049,182.794 71.900 C 182.797 70.096,182.633 68.800,182.400 68.800 C 182.175 68.800,182.003 69.896,182.006 71.300 M63.507 69.490 C 64.226 69.579,65.306 69.577,65.907 69.486 C 66.508 69.395,65.920 69.322,64.600 69.324 C 63.280 69.326,62.788 69.401,63.507 69.490 M126.057 70.057 C 125.775 70.509,125.632 70.966,125.740 71.073 C 125.847 71.181,126.144 70.878,126.400 70.400 C 127.005 69.270,126.724 68.990,126.057 70.057 M162.544 72.800 C 162.544 74.890,162.612 75.745,162.694 74.700 C 162.776 73.655,162.776 71.945,162.694 70.900 C 162.612 69.855,162.544 70.710,162.544 72.800 M334.707 69.490 C 335.426 69.579,336.506 69.577,337.107 69.486 C 337.708 69.395,337.120 69.322,335.800 69.324 C 334.480 69.326,333.988 69.401,334.707 69.490 M53.700 69.876 C 54.085 69.976,54.715 69.976,55.100 69.876 C 55.485 69.775,55.170 69.693,54.400 69.693 C 53.630 69.693,53.315 69.775,53.700 69.876 M245.600 69.902 C 245.600 70.141,244.790 71.545,243.800 73.022 C 241.936 75.801,241.726 76.216,242.394 75.804 C 243.051 75.398,246.125 69.992,245.853 69.720 C 245.714 69.581,245.600 69.663,245.600 69.902 M345.300 69.876 C 345.685 69.976,346.315 69.976,346.700 69.876 C 347.085 69.775,346.770 69.693,346.000 69.693 C 345.230 69.693,344.915 69.775,345.300 69.876 M106.392 71.010 C 106.114 71.345,105.966 71.700,106.064 71.798 C 106.162 71.896,106.546 71.621,106.917 71.188 C 107.289 70.755,107.436 70.400,107.245 70.400 C 107.054 70.400,106.670 70.674,106.392 71.010 M351.800 71.066 C 352.460 71.415,353.316 71.976,353.702 72.314 C 354.089 72.652,354.508 72.825,354.634 72.699 C 354.881 72.452,351.567 70.390,350.965 70.416 C 350.764 70.425,351.140 70.717,351.800 71.066 M46.800 71.600 C 46.250 72.030,45.980 72.382,46.200 72.382 C 46.420 72.382,47.050 72.030,47.600 71.600 C 48.150 71.170,48.420 70.818,48.200 70.818 C 47.980 70.818,47.350 71.170,46.800 71.600 M110.400 71.400 C 110.950 71.714,111.580 71.972,111.800 71.972 C 112.020 71.972,111.750 71.714,111.200 71.400 C 110.650 71.086,110.020 70.828,109.800 70.828 C 109.580 70.828,109.850 71.086,110.400 71.400 M211.246 73.196 C 211.739 74.073,212.208 74.726,212.287 74.646 C 212.459 74.474,210.806 71.600,210.535 71.600 C 210.433 71.600,210.752 72.318,211.246 73.196 M44.401 73.798 C 43.886 74.348,43.552 74.885,43.660 74.994 C 43.768 75.102,44.254 74.652,44.740 73.995 C 45.817 72.539,45.666 72.452,44.401 73.798 M116.100 73.076 C 116.485 73.176,117.115 73.176,117.500 73.076 C 117.885 72.975,117.570 72.893,116.800 72.893 C 116.030 72.893,115.715 72.975,116.100 73.076 M136.000 73.144 C 136.000 73.333,135.541 74.165,134.980 74.991 C 133.991 76.449,133.901 77.156,134.773 76.616 C 135.008 76.471,135.200 76.093,135.200 75.776 C 135.200 75.459,135.351 75.200,135.536 75.200 C 135.720 75.200,136.080 74.742,136.336 74.181 C 136.902 72.938,136.909 72.800,136.400 72.800 C 136.180 72.800,136.000 72.955,136.000 73.144 M212.800 75.430 C 212.800 75.650,213.700 76.717,214.800 77.800 C 215.900 78.883,216.800 79.590,216.800 79.370 C 216.800 79.150,215.900 78.083,214.800 77.000 C 213.700 75.917,212.800 75.210,212.800 75.430 M272.846 77.020 L 272.892 79.000 273.208 77.400 C 273.386 76.502,273.366 75.633,273.162 75.420 C 272.944 75.191,272.818 75.826,272.846 77.020 M104.227 76.714 C 103.951 77.583,104.304 78.800,104.833 78.800 C 105.024 78.800,105.069 78.215,104.933 77.500 C 104.620 75.858,104.531 75.758,104.227 76.714 M152.501 77.400 C 152.505 78.280,152.587 78.593,152.683 78.095 C 152.779 77.598,152.775 76.878,152.675 76.495 C 152.575 76.113,152.496 76.520,152.501 77.400 M385.874 76.300 C 385.778 76.465,385.845 76.960,386.022 77.400 C 386.303 78.098,386.347 78.060,386.372 77.100 C 386.400 76.015,386.212 75.714,385.874 76.300 M131.016 78.997 C 130.364 79.529,129.919 80.052,130.026 80.159 C 130.296 80.429,132.800 78.805,132.800 78.361 C 132.800 77.779,132.279 77.964,131.016 78.997 M182.641 78.334 C 182.471 78.609,182.549 79.097,182.815 79.418 C 183.080 79.738,183.141 80.003,182.949 80.006 C 182.467 80.015,183.704 80.788,184.200 80.788 C 184.420 80.788,184.367 80.640,184.083 80.460 C 183.799 80.279,183.428 79.614,183.259 78.982 C 183.052 78.209,182.849 77.996,182.641 78.334 M237.664 79.200 C 236.941 79.861,235.866 80.663,235.275 80.984 C 234.684 81.305,234.388 81.575,234.618 81.584 C 235.278 81.609,239.328 79.054,239.506 78.500 C 239.776 77.661,239.046 77.938,237.664 79.200 M105.600 79.526 C 105.600 79.948,108.431 81.303,108.716 81.017 C 108.836 80.898,108.751 80.800,108.528 80.800 C 108.305 80.800,107.707 80.440,107.200 80.000 C 106.234 79.162,105.600 78.974,105.600 79.526 M357.600 80.024 C 357.600 80.477,357.780 80.736,358.000 80.600 C 358.220 80.464,358.400 80.093,358.400 79.776 C 358.400 79.459,358.220 79.200,358.000 79.200 C 357.780 79.200,357.600 79.571,357.600 80.024 M13.600 82.467 C 13.600 84.941,13.798 84.883,14.173 82.300 C 14.354 81.054,14.303 80.400,14.025 80.400 C 13.780 80.400,13.600 81.276,13.600 82.467 M316.914 82.200 C 316.917 83.300,316.995 83.703,317.087 83.095 C 317.179 82.486,317.177 81.586,317.082 81.095 C 316.987 80.603,316.911 81.100,316.914 82.200 M221.000 81.814 C 221.660 82.117,222.470 82.358,222.800 82.352 C 223.130 82.345,222.770 82.097,222.000 81.800 C 220.174 81.097,219.455 81.107,221.000 81.814 M41.867 82.267 C 41.448 82.685,41.555 84.400,42.000 84.400 C 42.220 84.400,42.400 83.860,42.400 83.200 C 42.400 81.957,42.319 81.815,41.867 82.267 M117.500 82.693 C 118.435 82.777,119.965 82.777,120.900 82.693 C 121.835 82.609,121.070 82.540,119.200 82.540 C 117.330 82.540,116.565 82.609,117.500 82.693 M268.705 82.683 C 269.202 82.779,269.922 82.775,270.305 82.675 C 270.687 82.575,270.280 82.496,269.400 82.501 C 268.520 82.505,268.207 82.587,268.705 82.683 M386.284 84.700 C 386.589 87.797,386.800 87.865,386.800 84.867 C 386.800 83.510,386.633 82.400,386.429 82.400 C 386.218 82.400,386.155 83.390,386.284 84.700 M83.301 84.200 C 83.305 85.080,83.387 85.393,83.483 84.895 C 83.579 84.398,83.575 83.678,83.475 83.295 C 83.375 82.913,83.296 83.320,83.301 84.200 M358.000 85.176 C 358.000 86.289,358.180 87.200,358.400 87.200 C 358.620 87.200,358.800 86.401,358.800 85.424 C 358.800 84.447,358.620 83.536,358.400 83.400 C 358.153 83.248,358.000 83.929,358.000 85.176 M13.260 99.220 L 13.320 105.400 13.636 99.600 C 13.829 96.059,13.806 93.652,13.576 93.420 C 13.341 93.183,13.222 95.358,13.260 99.220 M41.457 96.459 C 41.023 100.615,41.151 138.400,41.600 138.400 C 41.862 138.400,42.000 130.733,42.000 116.200 C 42.000 103.990,41.936 94.000,41.857 94.000 C 41.778 94.000,41.598 95.106,41.457 96.459 M311.560 99.500 C 309.901 101.274,309.024 102.400,309.302 102.400 C 309.413 102.400,310.349 101.410,311.382 100.200 C 313.534 97.681,313.636 97.280,311.560 99.500 M386.707 118.200 C 386.648 129.310,386.735 138.400,386.900 138.400 C 387.065 138.400,387.200 129.310,387.200 118.200 C 387.200 107.090,387.113 98.000,387.007 98.000 C 386.901 98.000,386.766 107.090,386.707 118.200 M90.400 101.914 C 90.400 102.389,94.749 106.584,94.991 106.342 C 95.233 106.100,91.156 101.592,90.700 101.597 C 90.535 101.599,90.400 101.741,90.400 101.914 M306.446 104.619 C 305.921 105.173,305.607 105.740,305.747 105.881 C 306.030 106.163,308.000 104.457,308.000 103.930 C 308.000 103.337,307.418 103.595,306.446 104.619 M302.815 107.454 C 301.834 107.974,301.256 108.400,301.531 108.400 C 302.111 108.400,305.200 106.878,305.200 106.592 C 305.200 106.275,304.690 106.459,302.815 107.454 M96.800 107.600 C 97.570 108.022,98.470 108.370,98.800 108.374 C 99.130 108.379,98.615 108.026,97.656 107.591 C 95.450 106.590,94.965 106.595,96.800 107.600 M109.900 109.882 C 110.395 109.978,111.205 109.978,111.700 109.882 C 112.195 109.787,111.790 109.709,110.800 109.709 C 109.810 109.709,109.405 109.787,109.900 109.882 M288.705 109.883 C 289.202 109.979,289.922 109.975,290.305 109.875 C 290.687 109.775,290.280 109.696,289.400 109.701 C 288.520 109.705,288.207 109.787,288.705 109.883 M121.315 110.296 C 122.588 110.376,124.568 110.375,125.715 110.294 C 126.862 110.214,125.820 110.149,123.400 110.150 C 120.980 110.151,120.042 110.216,121.315 110.296 M274.915 110.296 C 276.188 110.376,278.168 110.375,279.315 110.294 C 280.462 110.214,279.420 110.149,277.000 110.150 C 274.580 110.151,273.642 110.216,274.915 110.296 M138.869 151.900 C 155.956 151.958,184.036 151.958,201.269 151.900 C 218.501 151.842,204.520 151.795,170.200 151.795 C 135.880 151.795,121.781 151.842,138.869 151.900 M21.100 152.298 C 22.915 152.372,25.885 152.372,27.700 152.298 C 29.515 152.223,28.030 152.163,24.400 152.163 C 20.770 152.163,19.285 152.223,21.100 152.298 M6.344 153.987 C 5.825 154.419,5.597 154.779,5.838 154.787 C 6.079 154.794,6.602 154.440,7.000 154.000 C 7.926 152.976,7.566 152.969,6.344 153.987 M393.985 154.374 C 394.747 155.048,395.534 155.600,395.734 155.600 C 396.341 155.600,395.343 154.645,393.931 153.874 L 392.600 153.148 393.985 154.374 M3.028 157.205 C 2.023 158.571,1.200 159.890,1.200 160.137 C 1.200 160.384,1.675 159.869,2.256 158.993 C 2.837 158.117,3.768 156.907,4.327 156.304 C 4.885 155.701,5.232 155.099,5.099 154.965 C 4.965 154.832,4.033 155.840,3.028 157.205 M398.109 158.562 C 398.590 159.546,399.043 160.291,399.115 160.218 C 399.337 159.996,398.109 157.315,397.658 157.036 C 397.426 156.892,397.629 157.579,398.109 158.562 M1.615 186.200 C 1.617 186.420,1.986 187.050,2.436 187.600 C 2.979 188.264,3.115 188.331,2.840 187.800 C 2.166 186.495,1.612 185.772,1.615 186.200 M397.857 187.300 L 397.142 188.600 397.971 187.656 C 398.687 186.840,399.050 186.000,398.686 186.000 C 398.624 186.000,398.251 186.585,397.857 187.300 M393.841 190.991 C 391.421 192.712,390.989 193.161,392.706 192.172 C 394.107 191.366,396.331 189.638,395.999 189.614 C 395.888 189.606,394.917 190.226,393.841 190.991 M8.000 192.367 C 8.963 193.152,9.600 193.408,9.600 193.010 C 9.600 192.906,9.015 192.535,8.300 192.186 L 7.000 191.552 8.000 192.367 M41.249 263.900 C 41.276 295.305,41.424 324.150,41.578 328.000 C 41.732 331.850,41.890 306.155,41.929 270.900 C 41.976 228.386,41.865 206.800,41.600 206.800 C 41.335 206.800,41.216 226.068,41.249 263.900 M386.700 243.100 C 386.756 263.065,386.847 288.580,386.904 299.800 C 386.961 311.020,387.051 294.685,387.104 263.500 C 387.157 232.315,387.065 206.800,386.900 206.800 C 386.735 206.800,386.645 223.135,386.700 243.100 M247.200 234.800 C 247.200 235.058,251.800 235.200,260.200 235.200 C 268.600 235.200,273.200 235.058,273.200 234.800 C 273.200 234.542,268.600 234.400,260.200 234.400 C 251.800 234.400,247.200 234.542,247.200 234.800 M84.800 235.217 C 84.800 235.598,90.710 235.347,91.167 234.946 C 91.258 234.866,89.863 234.800,88.067 234.800 C 86.068 234.800,84.800 234.962,84.800 235.217 M161.349 235.282 C 163.258 235.546,164.230 235.530,164.529 235.231 C 164.837 234.923,164.052 234.815,161.780 234.851 L 158.600 234.902 161.349 235.282 M219.820 235.165 C 220.038 235.375,221.221 235.397,222.600 235.218 L 225.000 234.905 222.220 234.852 C 220.534 234.821,219.590 234.944,219.820 235.165 M311.233 234.944 C 311.683 235.334,316.000 235.569,316.000 235.203 C 316.000 234.976,314.925 234.800,313.533 234.800 C 312.177 234.800,311.142 234.865,311.233 234.944 M79.120 235.680 C 79.493 236.053,79.707 236.053,80.080 235.680 C 80.453 235.307,80.347 235.200,79.600 235.200 C 78.853 235.200,78.747 235.307,79.120 235.680 M320.320 235.680 C 320.693 236.053,320.907 236.053,321.280 235.680 C 321.653 235.307,321.547 235.200,320.800 235.200 C 320.053 235.200,319.947 235.307,320.320 235.680 M75.900 236.229 C 75.295 236.557,74.800 237.000,74.800 237.213 C 74.800 237.820,75.374 237.670,76.282 236.824 C 76.740 236.397,77.206 236.139,77.317 236.251 C 77.429 236.362,77.639 236.261,77.784 236.027 C 78.157 235.423,77.196 235.526,75.900 236.229 M214.300 236.157 C 213.284 236.928,213.442 237.198,214.597 236.662 C 215.145 236.408,215.595 236.065,215.597 235.900 C 215.602 235.456,215.091 235.557,214.300 236.157 M323.600 236.400 C 323.600 236.620,323.788 236.800,324.017 236.800 C 324.246 236.800,324.818 237.158,325.288 237.596 C 325.757 238.033,326.245 238.287,326.371 238.160 C 326.611 237.918,324.421 236.005,323.900 236.002 C 323.735 236.001,323.600 236.180,323.600 236.400 M173.600 237.438 C 173.600 237.656,174.432 238.636,175.448 239.617 C 176.464 240.598,177.109 241.040,176.881 240.600 C 176.344 239.565,173.600 236.921,173.600 237.438 M211.007 238.793 C 210.152 239.669,209.550 240.483,209.669 240.602 C 209.864 240.797,213.200 237.726,213.200 237.353 C 213.200 236.853,212.367 237.400,211.007 238.793 M72.801 238.598 C 72.286 239.148,71.985 239.718,72.133 239.867 C 72.426 240.159,74.400 238.472,74.400 237.930 C 74.400 237.320,73.746 237.593,72.801 238.598 M208.629 242.343 C 207.725 244.093,207.856 244.441,208.823 242.855 C 209.274 242.115,209.557 241.423,209.451 241.318 C 209.345 241.212,208.976 241.673,208.629 242.343 M68.983 244.500 C 68.878 244.775,68.838 252.920,68.896 262.600 L 69.000 280.200 69.200 262.100 C 69.310 252.145,69.349 244.000,69.287 244.000 C 69.226 244.000,69.089 244.225,68.983 244.500 M330.924 250.200 C 330.926 251.520,331.001 252.012,331.090 251.293 C 331.179 250.574,331.177 249.494,331.086 248.893 C 330.995 248.292,330.922 248.880,330.924 250.200 M178.944 256.000 C 178.944 258.090,179.012 258.945,179.094 257.900 C 179.176 256.855,179.176 255.145,179.094 254.100 C 179.012 253.055,178.944 253.910,178.944 256.000 M206.965 261.400 C 206.966 265.360,207.026 266.926,207.098 264.880 C 207.171 262.834,207.171 259.594,207.098 257.680 C 207.024 255.766,206.965 257.440,206.965 261.400 M206.980 284.600 C 206.980 292.080,207.034 295.083,207.099 291.274 C 207.165 287.465,207.165 281.345,207.099 277.674 C 207.033 274.003,206.979 277.120,206.980 284.600 M179.386 314.600 C 179.387 326.480,179.438 331.282,179.500 325.272 C 179.562 319.261,179.562 309.541,179.500 303.672 C 179.437 297.802,179.386 302.720,179.386 314.600 M13.200 317.133 C 13.200 327.214,13.344 333.200,13.587 333.200 C 13.946 333.200,13.707 301.650,13.345 301.233 C 13.265 301.142,13.200 308.297,13.200 317.133 M358.063 325.700 C 358.098 338.515,358.255 347.740,358.413 346.200 C 358.875 341.697,358.864 302.400,358.400 302.400 C 358.137 302.400,358.022 310.391,358.063 325.700 M330.920 316.000 C 330.920 317.210,330.995 317.705,331.087 317.100 C 331.178 316.495,331.178 315.505,331.087 314.900 C 330.995 314.295,330.920 314.790,330.920 316.000 M207.314 316.200 C 207.317 317.300,207.395 317.703,207.487 317.095 C 207.579 316.486,207.577 315.586,207.482 315.095 C 207.387 314.603,207.311 315.100,207.314 316.200 M208.000 323.053 C 208.000 324.695,213.546 330.403,215.136 330.398 C 215.527 330.396,215.307 330.140,214.600 329.774 C 212.935 328.912,210.517 326.538,209.149 324.422 C 208.517 323.444,208.000 322.828,208.000 323.053 M329.785 323.649 C 329.109 325.777,324.720 329.600,322.003 330.426 C 321.285 330.644,321.210 330.741,321.740 330.766 C 324.256 330.883,331.548 324.215,330.285 322.952 C 330.168 322.835,329.943 323.149,329.785 323.649 M219.900 331.082 C 220.395 331.178,221.205 331.178,221.700 331.082 C 222.195 330.987,221.790 330.909,220.800 330.909 C 219.810 330.909,219.405 330.987,219.900 331.082 M317.105 331.083 C 317.602 331.179,318.322 331.175,318.705 331.075 C 319.087 330.975,318.680 330.896,317.800 330.901 C 316.920 330.905,316.607 330.987,317.105 331.083 M256.900 331.500 C 264.985 331.560,278.215 331.560,286.300 331.500 C 294.385 331.439,287.770 331.390,271.600 331.390 C 255.430 331.390,248.815 331.439,256.900 331.500 M386.343 352.200 C 386.202 354.840,386.157 357.075,386.243 357.167 C 386.703 357.655,386.815 356.453,386.713 352.154 L 386.600 347.400 386.343 352.200 M41.606 353.300 C 41.609 354.235,41.787 355.270,42.000 355.600 C 42.275 356.026,42.390 355.533,42.394 353.900 C 42.397 352.629,42.221 351.600,42.000 351.600 C 41.780 351.600,41.603 352.365,41.606 353.300 M13.600 356.533 C 13.600 358.503,13.767 360.000,13.987 360.000 C 14.341 360.000,14.113 353.659,13.744 353.233 C 13.665 353.142,13.600 354.627,13.600 356.533 M42.000 360.576 C 42.000 360.893,42.180 361.264,42.400 361.400 C 42.620 361.536,42.800 361.277,42.800 360.824 C 42.800 360.371,42.620 360.000,42.400 360.000 C 42.180 360.000,42.000 360.259,42.000 360.576 M68.560 367.000 C 68.561 370.300,68.622 371.597,68.698 369.882 C 68.773 368.167,68.772 365.467,68.697 363.882 C 68.621 362.297,68.559 363.700,68.560 367.000 M385.900 364.610 C 385.794 365.165,385.863 365.715,386.054 365.833 C 386.244 365.951,386.400 365.497,386.400 364.824 C 386.400 363.339,386.163 363.237,385.900 364.610 M44.000 367.878 C 44.000 368.379,46.054 370.000,47.880 370.941 C 49.901 371.981,49.991 371.699,48.000 370.567 C 47.010 370.004,45.705 369.072,45.100 368.497 C 44.495 367.921,44.000 367.643,44.000 367.878 M354.610 369.100 C 353.527 370.464,353.506 370.543,354.380 369.971 C 355.447 369.272,356.695 367.600,356.149 367.600 C 355.957 367.600,355.264 368.275,354.610 369.100 M54.305 372.283 C 54.802 372.379,55.522 372.375,55.905 372.275 C 56.287 372.175,55.880 372.096,55.000 372.101 C 54.120 372.105,53.807 372.187,54.305 372.283 M337.907 372.290 C 338.626 372.379,339.706 372.377,340.307 372.286 C 340.908 372.195,340.320 372.122,339.000 372.124 C 337.680 372.126,337.188 372.201,337.907 372.290 M64.307 372.690 C 65.026 372.779,66.106 372.777,66.707 372.686 C 67.308 372.595,66.720 372.522,65.400 372.524 C 64.080 372.526,63.588 372.601,64.307 372.690 M212.332 372.700 C 230.444 372.758,259.964 372.758,277.932 372.700 C 295.899 372.642,281.080 372.595,245.000 372.595 C 208.920 372.595,194.219 372.642,212.332 372.700 M382.818 375.166 C 382.573 375.625,382.539 376.000,382.743 376.000 C 383.154 376.000,383.722 374.788,383.442 374.508 C 383.344 374.411,383.064 374.707,382.818 375.166 M379.337 381.500 C 378.686 382.545,377.828 383.895,377.431 384.500 C 376.000 386.678,377.177 385.544,378.885 383.100 C 381.205 379.779,381.307 379.600,380.883 379.600 C 380.683 379.600,379.987 380.455,379.337 381.500 M21.231 382.798 C 22.156 384.117,23.200 385.422,23.552 385.698 C 24.071 386.106,24.059 386.012,23.489 385.200 C 23.104 384.650,22.206 383.348,21.494 382.307 C 20.782 381.266,20.054 380.411,19.874 380.407 C 19.695 380.403,20.306 381.479,21.231 382.798 M375.374 386.983 C 374.122 388.894,368.318 393.151,363.907 395.394 C 361.521 396.607,359.760 397.600,359.993 397.600 C 362.748 397.600,377.443 387.309,376.308 386.175 C 376.174 386.040,375.753 386.404,375.374 386.983 M24.400 386.640 C 24.400 387.159,27.124 389.809,27.387 389.547 C 27.496 389.437,26.869 388.648,25.993 387.793 C 25.117 386.937,24.400 386.419,24.400 386.640 M29.585 391.616 C 30.347 392.267,31.136 392.800,31.340 392.800 C 31.543 392.800,31.031 392.260,30.200 391.600 C 28.254 390.054,27.772 390.066,29.585 391.616 M32.220 393.567 C 32.920 394.244,38.593 397.189,39.200 397.190 C 39.530 397.191,38.891 396.769,37.780 396.251 C 36.669 395.734,35.007 394.836,34.088 394.255 C 32.428 393.208,31.491 392.863,32.220 393.567 M61.282 400.296 C 62.758 400.373,65.278 400.373,66.882 400.297 C 68.487 400.221,67.280 400.158,64.200 400.158 C 61.120 400.157,59.807 400.219,61.282 400.296 M332.882 400.296 C 334.358 400.373,336.878 400.373,338.482 400.297 C 340.087 400.221,338.880 400.158,335.800 400.158 C 332.720 400.157,331.407 400.219,332.882 400.296 M122.929 400.700 C 129.489 400.762,140.109 400.761,146.529 400.700 C 152.948 400.638,147.580 400.587,134.600 400.588 C 121.620 400.588,116.368 400.638,122.929 400.700 M254.129 400.700 C 260.689 400.762,271.309 400.761,277.729 400.700 C 284.148 400.638,278.780 400.587,265.800 400.588 C 252.820 400.588,247.568 400.638,254.129 400.700 " stroke="none" fill="#c1c1c1" fill-rule="evenodd"></path><path id="path1" d="M110.600 0.829 C 96.699 1.540,86.372 9.596,84.400 21.268 C 82.846 30.468,82.971 81.817,84.567 90.112 C 85.668 95.833,93.534 105.909,97.926 107.225 C 98.847 107.501,99.601 107.833,99.602 107.963 C 99.603 108.093,100.436 108.248,101.452 108.307 C 102.469 108.367,103.499 108.538,103.742 108.687 C 103.984 108.837,104.996 108.988,105.991 109.022 C 106.986 109.056,109.870 109.186,112.400 109.311 C 118.106 109.593,281.740 109.608,287.800 109.328 C 293.507 109.064,298.179 108.639,299.200 108.292 C 303.731 106.752,303.797 106.708,308.496 102.009 C 316.988 93.519,317.622 89.307,317.032 45.244 C 316.654 16.961,316.414 16.019,307.328 7.159 C 301.830 1.797,300.035 1.388,279.400 0.790 C 264.510 0.359,119.142 0.392,110.600 0.829 M163.107 37.300 L 163.214 47.200 172.830 47.200 L 182.446 47.200 182.323 37.971 C 182.185 27.593,182.191 27.570,185.181 27.613 C 185.962 27.624,187.718 27.515,189.085 27.370 C 190.452 27.225,192.054 27.227,192.644 27.375 L 193.718 27.645 193.400 36.922 C 193.226 42.025,193.134 53.967,193.197 63.459 L 193.311 80.719 189.835 81.009 C 184.199 81.478,182.184 80.851,182.497 78.723 C 182.587 78.105,182.497 77.600,182.295 77.600 C 182.076 77.600,182.046 73.675,182.220 67.800 L 182.511 58.000 172.856 58.000 L 163.200 58.000 163.186 60.300 C 163.150 66.104,162.705 80.617,162.559 80.769 C 161.961 81.388,153.104 80.950,152.610 80.277 C 151.941 79.367,151.882 77.202,151.854 52.200 C 151.825 26.492,151.766 26.953,154.964 27.755 C 155.497 27.889,156.354 27.827,156.867 27.616 C 157.380 27.406,158.970 27.271,160.400 27.317 L 163.000 27.400 163.107 37.300 M229.714 27.448 C 229.851 27.584,230.652 27.729,231.495 27.770 C 238.098 28.090,246.284 36.966,247.940 45.600 C 248.698 49.555,248.684 57.102,247.903 64.624 C 247.282 70.611,241.895 78.216,236.248 81.077 C 225.690 86.427,213.238 81.071,208.773 69.258 C 207.575 66.090,206.565 50.577,207.416 48.436 C 207.556 48.086,207.720 46.931,207.781 45.868 C 208.076 40.783,214.019 32.573,219.505 29.672 C 222.778 27.942,228.879 26.612,229.714 27.448 M130.931 28.620 C 135.868 29.873,137.084 31.743,135.577 35.769 C 134.212 39.419,133.788 39.747,130.878 39.409 C 129.516 39.251,128.476 39.001,128.567 38.853 C 128.658 38.706,128.028 38.652,127.166 38.735 C 126.305 38.817,125.600 38.729,125.600 38.540 C 125.600 38.350,124.044 38.299,122.142 38.425 C 117.683 38.721,116.607 39.668,116.887 43.049 C 117.119 45.846,117.142 45.866,123.998 49.412 C 135.653 55.440,138.039 58.515,137.845 67.259 C 137.583 79.066,127.940 84.932,113.000 82.373 C 104.681 80.948,102.909 79.084,104.790 73.733 C 106.212 69.686,107.419 69.203,111.489 71.048 C 119.029 74.465,126.200 72.395,126.200 66.800 C 126.200 63.217,126.074 63.097,118.086 59.132 C 108.606 54.425,104.944 50.629,105.266 45.844 C 105.313 45.143,105.217 44.352,105.052 44.085 C 104.888 43.818,104.886 43.384,105.050 43.119 C 105.213 42.855,105.359 41.816,105.373 40.811 C 105.457 35.084,112.112 28.705,118.520 28.210 C 119.357 28.145,120.167 27.961,120.320 27.800 C 120.781 27.318,127.999 27.876,130.931 28.620 M281.142 29.193 C 288.944 29.269,296.494 35.876,296.575 42.700 C 296.589 43.854,296.735 44.799,296.900 44.800 C 297.065 44.800,297.200 45.250,297.200 45.800 C 297.200 46.350,297.062 46.800,296.893 46.800 C 296.725 46.800,296.578 47.835,296.567 49.100 C 296.500 56.742,287.543 63.578,277.111 63.949 C 272.695 64.106,273.039 63.338,273.331 72.387 C 273.471 76.729,273.456 80.411,273.298 80.569 C 273.140 80.727,273.008 81.159,273.005 81.528 C 272.998 82.524,270.053 83.070,265.700 82.881 L 262.000 82.720 262.000 56.732 C 262.000 27.458,261.741 29.655,265.224 29.414 C 266.344 29.337,267.342 29.191,267.442 29.091 C 267.543 28.991,270.454 28.970,273.912 29.046 C 277.371 29.122,280.624 29.188,281.142 29.193 M224.600 38.227 C 220.837 40.177,217.200 46.671,217.200 51.442 C 217.200 52.189,217.065 52.800,216.900 52.800 C 216.735 52.801,216.597 53.971,216.592 55.400 C 216.588 56.830,216.723 58.000,216.892 58.000 C 217.062 58.000,217.200 58.559,217.200 59.242 C 217.200 65.129,221.475 71.715,226.002 72.800 C 237.759 75.621,243.604 50.679,233.596 40.397 C 231.055 37.787,227.229 36.864,224.600 38.227 M273.200 46.557 C 273.200 54.491,273.166 54.375,275.400 54.165 C 282.008 53.544,284.818 51.214,285.107 46.117 C 285.395 41.050,283.174 39.225,276.700 39.209 L 273.200 39.200 273.200 46.557 M53.000 42.016 C 42.053 42.915,29.995 49.103,23.672 57.067 C 19.461 62.371,14.800 73.041,14.800 77.378 C 14.800 78.087,14.681 78.786,14.535 78.932 C 14.389 79.077,14.223 81.402,14.165 84.098 C 14.108 86.794,14.007 89.900,13.941 91.000 C 13.875 92.100,13.861 103.125,13.911 115.500 L 14.000 138.000 27.600 138.000 L 41.200 138.000 41.200 112.000 C 41.200 96.382,41.347 86.000,41.569 86.000 C 41.782 86.000,41.842 84.730,41.711 83.000 C 41.562 81.026,41.628 80.000,41.905 80.000 C 42.136 80.000,42.234 79.651,42.122 79.224 C 41.753 77.811,43.212 74.387,44.871 72.778 C 48.213 69.535,49.557 69.257,63.033 69.021 C 65.911 68.971,68.476 68.800,68.733 68.641 C 69.074 68.431,69.200 64.738,69.200 54.976 L 69.200 41.600 62.900 41.660 C 59.435 41.693,54.980 41.854,53.000 42.016 M331.695 55.275 L 331.800 68.949 337.000 69.029 C 346.334 69.173,350.151 69.452,351.656 70.097 C 354.749 71.425,358.353 75.805,357.871 77.650 C 357.753 78.099,357.839 78.299,358.084 78.148 C 358.347 77.986,358.439 78.476,358.340 79.514 C 358.253 80.423,358.345 81.034,358.549 80.908 C 358.763 80.776,358.832 82.355,358.717 84.742 C 358.610 86.974,358.674 88.800,358.861 88.800 C 359.047 88.800,359.200 99.870,359.200 113.400 L 359.200 138.000 372.800 138.000 L 386.400 138.000 386.489 118.100 C 386.539 107.155,386.530 97.300,386.470 96.200 C 386.411 95.100,386.305 91.180,386.236 87.488 C 386.166 83.796,385.995 80.661,385.855 80.521 C 385.715 80.381,385.600 79.472,385.600 78.500 C 385.600 71.808,380.006 60.066,373.958 54.061 C 365.322 45.488,354.011 41.600,337.705 41.600 L 331.589 41.600 331.695 55.275 M62.600 152.483 C 59.740 152.639,47.410 152.771,35.200 152.775 C 10.468 152.785,9.422 152.856,6.746 154.698 C 1.067 158.609,-0.642 164.567,0.366 176.942 C 1.099 185.929,2.361 188.245,8.435 191.743 L 10.270 192.800 200.186 192.800 L 390.103 192.800 392.351 191.516 C 399.075 187.676,400.823 181.895,399.699 167.227 C 399.092 159.304,398.282 157.627,393.600 154.595 L 391.000 152.912 358.000 152.567 C 318.252 152.153,69.965 152.082,62.600 152.483 M13.903 270.500 C 13.850 305.095,13.857 335.470,13.918 338.000 C 13.979 340.530,14.114 347.010,14.217 352.400 C 14.439 363.971,14.787 366.902,16.549 372.063 C 21.851 387.596,35.879 398.411,52.400 399.704 C 60.486 400.337,339.757 400.354,347.807 399.722 C 362.760 398.549,375.788 389.695,381.841 376.595 C 385.939 367.723,385.821 369.023,386.512 325.400 C 386.558 322.540,386.551 294.865,386.497 263.900 L 386.400 207.600 372.800 207.600 L 359.200 207.600 359.128 243.300 C 359.088 262.935,358.942 277.650,358.803 276.000 C 358.663 274.350,358.635 293.560,358.741 318.689 L 358.932 364.378 357.054 367.202 C 354.474 371.082,350.096 373.079,345.978 372.256 C 345.347 372.129,344.719 372.207,344.583 372.428 C 344.287 372.906,351.648 372.863,256.000 372.939 L 179.400 373.000 179.131 313.400 C 178.864 254.204,178.641 244.778,177.458 242.536 C 175.801 239.394,171.815 236.469,168.763 236.155 C 167.573 236.033,166.358 235.857,166.061 235.764 C 165.004 235.433,83.200 235.407,83.200 235.737 C 83.200 235.922,82.210 236.012,80.999 235.937 C 79.789 235.862,78.799 235.913,78.799 236.050 C 78.800 236.188,78.256 236.409,77.592 236.542 C 76.085 236.843,72.715 239.950,71.014 242.607 L 69.729 244.614 69.364 289.807 C 69.164 314.663,69.037 343.578,69.082 354.063 L 69.163 373.126 63.682 372.988 C 60.667 372.912,56.898 372.851,55.307 372.853 C 53.716 372.855,52.207 372.728,51.954 372.571 C 51.700 372.415,50.878 372.249,50.127 372.204 C 46.907 372.008,42.776 367.911,42.660 364.796 C 42.627 363.921,42.442 363.204,42.249 363.202 C 42.056 363.201,41.985 362.300,42.090 361.200 C 42.205 360.007,42.121 359.200,41.883 359.200 C 41.627 359.200,41.561 357.406,41.700 354.200 C 41.822 351.366,41.760 349.200,41.558 349.200 C 41.349 349.200,41.200 319.758,41.200 278.400 L 41.200 207.600 27.600 207.600 L 14.000 207.600 13.903 270.500 M234.191 235.318 C 232.876 235.494,228.785 235.584,225.100 235.518 C 221.415 235.453,218.400 235.535,218.400 235.700 C 218.400 235.865,217.903 236.000,217.295 236.000 C 215.008 236.000,210.870 239.631,208.936 243.334 C 207.438 246.203,206.860 304.247,208.168 320.406 C 208.486 324.329,212.732 329.036,216.800 329.974 C 221.245 330.999,319.305 331.229,320.317 330.217 C 320.436 330.098,321.008 330.000,321.588 330.000 C 324.085 330.000,328.857 325.624,329.637 322.618 C 329.868 321.728,330.201 320.436,330.377 319.747 C 330.911 317.652,330.548 244.548,330.000 244.000 C 329.890 243.890,329.448 243.110,329.019 242.266 C 327.197 238.689,323.064 236.007,319.367 236.002 C 318.468 236.001,317.648 235.915,317.544 235.811 C 316.944 235.210,238.484 234.747,234.191 235.318 " stroke="none" fill="#040404" fill-rule="evenodd"></path><path id="path2" d="M114.305 0.683 C 114.802 0.779,115.522 0.775,115.905 0.675 C 116.287 0.575,115.880 0.496,115.000 0.501 C 114.120 0.505,113.807 0.587,114.305 0.683 M272.291 0.689 C 273.001 0.777,274.261 0.779,275.091 0.692 C 275.921 0.605,275.340 0.533,273.800 0.531 C 272.260 0.529,271.581 0.600,272.291 0.689 M305.983 5.700 C 306.964 6.745,307.819 7.600,307.883 7.600 C 308.184 7.600,307.866 7.241,306.100 5.583 L 304.200 3.800 305.983 5.700 M91.387 8.500 L 89.000 11.000 91.500 8.613 C 93.822 6.395,94.183 6.000,93.887 6.000 C 93.826 6.000,92.701 7.125,91.387 8.500 M87.523 12.700 C 86.818 13.521,86.290 14.400,86.501 14.400 C 86.583 14.400,87.049 13.860,87.537 13.200 C 88.501 11.896,88.492 11.572,87.523 12.700 M83.693 26.400 C 83.693 27.170,83.775 27.485,83.876 27.100 C 83.976 26.715,83.976 26.085,83.876 25.700 C 83.775 25.315,83.693 25.630,83.693 26.400 M157.000 27.600 C 156.469 27.828,157.383 27.953,159.724 27.972 C 161.978 27.990,163.158 27.856,163.000 27.600 C 162.702 27.117,158.124 27.117,157.000 27.600 M187.000 27.600 C 186.467 27.829,187.354 27.953,189.657 27.972 L 193.114 28.000 192.989 37.300 C 192.908 43.341,192.975 45.619,193.182 43.800 C 193.814 38.242,193.676 27.715,192.967 27.443 C 192.047 27.090,187.935 27.198,187.000 27.600 M226.437 27.569 C 226.070 27.801,226.579 27.904,227.898 27.863 C 229.011 27.828,229.839 27.665,229.738 27.500 C 229.482 27.085,227.123 27.134,226.437 27.569 M120.245 27.928 C 120.133 28.108,120.573 28.177,121.221 28.082 C 121.870 27.987,122.400 27.840,122.400 27.755 C 122.400 27.450,120.443 27.607,120.245 27.928 M125.200 28.000 C 126.742 28.494,127.564 28.494,126.800 28.000 C 126.470 27.787,125.750 27.627,125.200 27.646 L 124.200 27.680 125.200 28.000 M234.400 28.596 C 234.400 28.870,236.849 30.084,237.032 29.901 C 237.119 29.814,236.562 29.444,235.795 29.078 C 235.028 28.712,234.400 28.495,234.400 28.596 M267.390 29.216 C 267.221 29.489,267.523 29.538,268.266 29.360 C 269.799 28.992,269.944 28.800,268.690 28.800 C 268.117 28.800,267.532 28.987,267.390 29.216 M277.633 28.943 C 277.725 29.021,278.430 29.201,279.200 29.342 C 280.185 29.523,280.422 29.482,280.000 29.206 C 279.458 28.850,277.237 28.603,277.633 28.943 M262.500 30.198 C 261.858 30.927,261.760 82.800,262.400 82.800 C 262.663 82.800,262.800 73.807,262.800 56.620 C 262.800 32.108,262.845 30.414,263.500 30.032 C 264.045 29.715,264.067 29.625,263.600 29.627 C 263.270 29.629,262.775 29.886,262.500 30.198 M284.400 29.982 C 284.730 30.205,285.345 30.391,285.767 30.394 C 286.790 30.402,286.471 30.173,285.000 29.844 C 284.124 29.648,283.962 29.685,284.400 29.982 M83.301 31.400 C 83.305 32.280,83.387 32.593,83.483 32.095 C 83.579 31.598,83.575 30.878,83.475 30.495 C 83.375 30.113,83.296 30.520,83.301 31.400 M238.842 31.300 C 238.938 31.355,240.003 32.300,241.208 33.400 L 243.400 35.400 241.415 33.300 C 240.323 32.145,239.258 31.200,239.048 31.200 C 238.838 31.200,238.745 31.245,238.842 31.300 M214.378 33.500 L 213.000 35.000 214.500 33.622 C 215.896 32.338,216.184 32.000,215.878 32.000 C 215.812 32.000,215.137 32.675,214.378 33.500 M151.785 52.000 C 151.785 62.890,151.837 67.345,151.900 61.900 C 151.963 56.455,151.963 47.545,151.900 42.100 C 151.837 36.655,151.785 41.110,151.785 52.000 M316.942 36.600 C 316.941 38.580,317.008 39.440,317.092 38.512 C 317.176 37.584,317.177 35.964,317.095 34.912 C 317.012 33.860,316.943 34.620,316.942 36.600 M83.324 39.800 C 83.326 41.120,83.401 41.612,83.490 40.893 C 83.579 40.174,83.577 39.094,83.486 38.493 C 83.395 37.892,83.322 38.480,83.324 39.800 M273.200 38.800 C 273.200 39.026,274.333 39.200,275.800 39.200 C 277.267 39.200,278.400 39.026,278.400 38.800 C 278.400 38.574,277.267 38.400,275.800 38.400 C 274.333 38.400,273.200 38.574,273.200 38.800 M209.478 40.605 C 209.112 41.372,208.895 42.000,208.996 42.000 C 209.270 42.000,210.484 39.551,210.301 39.368 C 210.214 39.281,209.844 39.838,209.478 40.605 M246.146 40.800 C 246.259 41.130,246.650 42.358,247.013 43.530 C 247.377 44.701,247.747 45.587,247.836 45.498 C 248.062 45.271,246.895 41.528,246.371 40.800 C 245.987 40.267,245.962 40.267,246.146 40.800 M105.002 43.197 C 104.867 43.415,104.941 43.910,105.166 44.297 C 105.517 44.900,105.577 44.844,105.588 43.900 C 105.601 42.750,105.416 42.528,105.002 43.197 M296.400 45.800 C 296.400 46.350,296.580 46.800,296.800 46.800 C 297.020 46.800,297.200 46.350,297.200 45.800 C 297.200 45.250,297.020 44.800,296.800 44.800 C 296.580 44.800,296.400 45.250,296.400 45.800 M37.100 46.229 C 35.549 47.070,35.725 47.361,37.300 46.559 C 38.808 45.793,39.075 45.594,38.567 45.616 C 38.365 45.625,37.705 45.901,37.100 46.229 M247.858 47.200 C 248.175 48.925,248.402 49.251,248.394 47.967 C 248.391 47.435,248.211 46.730,247.994 46.400 C 247.718 45.978,247.677 46.215,247.858 47.200 M33.944 48.024 L 33.000 48.847 34.200 48.145 C 35.779 47.220,35.803 47.200,35.311 47.200 C 35.079 47.200,34.464 47.571,33.944 48.024 M207.467 48.267 C 207.320 48.413,207.227 50.078,207.259 51.967 L 207.318 55.400 207.612 51.800 C 207.917 48.057,207.908 47.826,207.467 48.267 M367.686 49.000 C 368.495 49.550,369.299 50.000,369.472 50.000 C 369.644 50.000,369.123 49.550,368.314 49.000 C 367.505 48.450,366.701 48.000,366.528 48.000 C 366.356 48.000,366.877 48.450,367.686 49.000 M125.200 50.184 C 125.200 50.294,125.920 50.751,126.800 51.200 C 127.680 51.649,128.400 51.926,128.400 51.816 C 128.400 51.706,127.680 51.249,126.800 50.800 C 125.920 50.351,125.200 50.074,125.200 50.184 M248.186 54.501 C 248.194 56.628,248.322 58.061,248.472 57.684 C 248.820 56.808,248.803 52.898,248.446 51.617 C 248.295 51.076,248.178 52.374,248.186 54.501 M280.400 53.034 C 279.090 53.570,279.077 53.592,280.200 53.375 C 280.860 53.248,281.571 52.976,281.780 52.772 C 282.259 52.303,282.121 52.329,280.400 53.034 M207.238 59.200 C 207.224 61.070,207.371 62.851,207.565 63.158 C 207.777 63.493,207.842 62.293,207.726 60.158 C 207.470 55.420,207.269 55.026,207.238 59.200 M248.046 61.267 C 248.021 61.634,247.896 62.264,247.770 62.667 C 247.552 63.362,247.563 63.363,247.997 62.687 C 248.248 62.296,248.373 61.666,248.273 61.287 C 248.111 60.668,248.088 60.666,248.046 61.267 M162.920 64.400 C 162.920 65.610,162.995 66.105,163.087 65.500 C 163.178 64.895,163.178 63.905,163.087 63.300 C 162.995 62.695,162.920 63.190,162.920 64.400 M247.233 66.233 C 246.975 67.259,246.839 68.172,246.931 68.264 C 247.022 68.356,247.309 67.592,247.567 66.567 C 247.825 65.541,247.961 64.628,247.869 64.536 C 247.778 64.444,247.491 65.208,247.233 66.233 M58.000 69.209 C 57.413 69.402,58.404 69.446,60.400 69.314 C 62.270 69.191,63.875 69.025,63.967 68.945 C 64.301 68.654,58.970 68.889,58.000 69.209 M245.681 70.609 C 245.202 71.594,244.894 72.400,244.997 72.400 C 245.268 72.400,246.884 69.151,246.703 68.970 C 246.619 68.886,246.159 69.624,245.681 70.609 M336.433 68.944 C 336.525 69.023,338.040 69.192,339.800 69.318 C 341.738 69.457,342.684 69.411,342.200 69.202 C 341.445 68.876,336.077 68.636,336.433 68.944 M51.600 69.618 C 51.162 69.915,51.324 69.952,52.200 69.756 C 53.671 69.427,53.990 69.198,52.967 69.206 C 52.545 69.209,51.930 69.395,51.600 69.618 M83.314 71.000 C 83.317 72.100,83.395 72.503,83.487 71.895 C 83.579 71.286,83.577 70.386,83.482 69.895 C 83.387 69.403,83.311 69.900,83.314 71.000 M346.433 69.347 C 346.525 69.428,347.320 69.604,348.200 69.738 C 349.315 69.907,349.558 69.871,349.000 69.619 C 348.232 69.271,346.090 69.044,346.433 69.347 M106.657 70.307 C 106.553 70.476,107.172 70.548,108.034 70.465 C 108.895 70.383,109.600 70.245,109.600 70.158 C 109.600 69.860,106.847 70.000,106.657 70.307 M316.944 74.000 C 316.944 76.090,317.012 76.945,317.094 75.900 C 317.176 74.855,317.176 73.145,317.094 72.100 C 317.012 71.055,316.944 71.910,316.944 74.000 M111.600 71.400 C 112.150 71.714,112.780 71.972,113.000 71.972 C 113.220 71.972,112.950 71.714,112.400 71.400 C 111.850 71.086,111.220 70.828,111.000 70.828 C 110.780 70.828,111.050 71.086,111.600 71.400 M116.711 72.693 C 117.651 72.778,119.091 72.777,119.911 72.691 C 120.730 72.605,119.960 72.536,118.200 72.537 C 116.440 72.539,115.770 72.609,116.711 72.693 M224.800 72.782 C 225.130 73.005,225.745 73.191,226.167 73.194 C 227.190 73.202,226.871 72.973,225.400 72.644 C 224.524 72.448,224.362 72.485,224.800 72.782 M211.600 74.600 C 212.281 75.590,212.928 76.400,213.038 76.400 C 213.148 76.400,212.681 75.590,212.000 74.600 C 211.319 73.610,210.672 72.800,210.562 72.800 C 210.452 72.800,210.919 73.610,211.600 74.600 M192.940 77.600 C 192.940 79.470,193.009 80.235,193.093 79.300 C 193.177 78.365,193.177 76.835,193.093 75.900 C 193.009 74.965,192.940 75.730,192.940 77.600 M152.053 77.824 C 152.022 78.777,152.260 79.768,152.630 80.224 C 152.976 80.651,153.116 80.730,152.940 80.400 C 152.764 80.070,152.505 78.990,152.364 78.000 L 152.107 76.200 152.053 77.824 M14.292 77.842 C 14.131 78.002,14.000 78.409,14.000 78.747 C 14.000 79.197,14.118 79.242,14.445 78.915 C 14.690 78.670,14.821 78.263,14.737 78.010 C 14.652 77.757,14.452 77.681,14.292 77.842 M83.301 79.400 C 83.305 80.280,83.387 80.593,83.483 80.095 C 83.579 79.598,83.575 78.878,83.475 78.495 C 83.375 78.113,83.296 78.520,83.301 79.400 M385.628 79.276 C 385.613 79.868,385.780 80.464,386.000 80.600 C 386.478 80.895,386.478 80.111,386.000 79.000 C 385.693 78.286,385.653 78.315,385.628 79.276 M83.693 84.000 C 83.693 84.770,83.775 85.085,83.876 84.700 C 83.976 84.315,83.976 83.685,83.876 83.300 C 83.775 82.915,83.693 83.230,83.693 84.000 M13.905 86.400 C 13.430 88.014,13.525 89.971,14.036 89.093 C 14.262 88.704,14.392 87.714,14.324 86.893 C 14.212 85.546,14.171 85.498,13.905 86.400 M41.200 87.424 C 41.200 88.271,41.362 88.747,41.600 88.600 C 41.820 88.464,42.000 87.823,42.000 87.176 C 42.000 86.529,41.820 86.000,41.600 86.000 C 41.380 86.000,41.200 86.641,41.200 87.424 M386.090 90.200 C 386.084 91.740,386.224 93.450,386.400 94.000 C 386.842 95.380,386.858 91.659,386.420 89.200 C 386.118 87.498,386.100 87.552,386.090 90.200 M358.400 91.400 C 358.400 92.867,358.574 94.000,358.800 94.000 C 359.026 94.000,359.200 92.867,359.200 91.400 C 359.200 89.933,359.026 88.800,358.800 88.800 C 358.574 88.800,358.400 89.933,358.400 91.400 M90.200 100.800 C 91.283 101.900,92.260 102.800,92.370 102.800 C 92.480 102.800,91.683 101.900,90.600 100.800 C 89.517 99.700,88.540 98.800,88.430 98.800 C 88.320 98.800,89.117 99.700,90.200 100.800 M307.991 102.676 C 306.126 104.588,305.320 105.533,306.200 104.776 C 307.874 103.336,311.844 99.200,311.551 99.200 C 311.458 99.200,309.856 100.764,307.991 102.676 M106.400 109.200 C 107.942 109.694,108.764 109.694,108.000 109.200 C 107.670 108.987,106.950 108.827,106.400 108.846 L 105.400 108.880 106.400 109.200 M292.400 109.218 C 291.962 109.515,292.124 109.552,293.000 109.356 C 294.471 109.027,294.790 108.798,293.767 108.806 C 293.345 108.809,292.730 108.995,292.400 109.218 M113.000 109.618 C 114.100 109.790,115.540 109.924,116.200 109.918 L 117.400 109.905 116.200 109.600 C 115.540 109.432,114.100 109.297,113.000 109.301 L 111.000 109.307 113.000 109.618 M284.200 109.600 L 283.000 109.905 284.200 109.918 C 284.860 109.924,286.300 109.790,287.400 109.618 L 289.400 109.307 287.400 109.301 C 286.300 109.297,284.860 109.432,284.200 109.600 M136.200 110.038 C 152.306 110.371,248.133 110.370,264.200 110.037 C 271.020 109.896,242.220 109.780,200.200 109.781 C 158.180 109.781,129.380 109.897,136.200 110.038 M38.800 152.400 C 31.658 152.596,32.381 152.629,44.400 152.658 C 51.990 152.677,60.360 152.567,63.000 152.416 C 69.030 152.070,51.262 152.058,38.800 152.400 M338.600 152.421 C 366.949 152.858,390.877 152.848,390.600 152.400 C 390.438 152.137,378.514 152.027,355.876 152.078 C 325.368 152.147,323.380 152.186,338.600 152.421 M10.400 152.800 C 9.940 153.097,10.079 153.188,11.000 153.188 C 11.660 153.188,12.470 153.013,12.800 152.800 C 13.260 152.503,13.121 152.412,12.200 152.412 C 11.540 152.412,10.730 152.587,10.400 152.800 M390.734 192.413 C 390.305 192.663,322.438 192.766,199.872 192.701 C 95.265 192.645,9.760 192.735,9.862 192.900 C 10.258 193.541,390.175 193.255,391.024 192.613 C 391.904 191.947,391.734 191.829,390.734 192.413 M20.700 207.499 C 24.495 207.565,30.705 207.565,34.500 207.499 C 38.295 207.434,35.190 207.380,27.600 207.380 C 20.010 207.380,16.905 207.434,20.700 207.499 M365.900 207.499 C 369.695 207.565,375.905 207.565,379.700 207.499 C 383.495 207.434,380.390 207.380,372.800 207.380 C 365.210 207.380,362.105 207.434,365.900 207.499 M228.800 235.200 C 226.796 235.622,231.906 235.638,234.600 235.218 C 236.459 234.929,236.374 234.907,233.400 234.906 C 231.640 234.906,229.570 235.038,228.800 235.200 M295.000 235.221 C 296.980 235.383,301.030 235.505,304.000 235.493 C 308.758 235.473,309.043 235.437,306.400 235.188 C 304.750 235.032,300.700 234.910,297.400 234.916 C 291.797 234.926,291.638 234.946,295.000 235.221 M81.400 235.600 C 81.260 235.827,81.596 236.000,82.176 236.000 C 82.739 236.000,83.200 235.820,83.200 235.600 C 83.200 235.380,82.851 235.200,82.424 235.200 C 81.997 235.200,81.536 235.380,81.400 235.600 M110.929 235.500 C 118.811 235.561,131.591 235.561,139.329 235.500 C 147.068 235.439,140.620 235.389,125.000 235.390 C 109.380 235.390,103.048 235.439,110.929 235.500 M165.800 235.600 C 165.936 235.820,166.407 236.000,166.847 236.000 C 167.287 236.000,167.536 235.820,167.400 235.600 C 167.264 235.380,166.793 235.200,166.353 235.200 C 165.913 235.200,165.664 235.380,165.800 235.600 M317.400 235.600 C 317.536 235.820,318.007 236.000,318.447 236.000 C 318.887 236.000,319.136 235.820,319.000 235.600 C 318.864 235.380,318.393 235.200,317.953 235.200 C 317.513 235.200,317.264 235.380,317.400 235.600 M73.375 239.300 L 72.200 240.600 73.500 239.425 C 74.712 238.330,74.984 238.000,74.675 238.000 C 74.606 238.000,74.021 238.585,73.375 239.300 M358.650 239.250 C 358.304 240.979,358.411 271.422,358.778 275.600 C 358.956 277.631,359.101 270.748,359.138 258.500 C 359.199 238.404,359.156 236.720,358.650 239.250 M208.187 244.200 C 208.084 244.530,207.912 245.079,207.805 245.421 C 207.697 245.762,207.766 245.945,207.957 245.827 C 208.148 245.709,208.391 245.159,208.497 244.606 C 208.706 243.513,208.490 243.230,208.187 244.200 M330.028 245.233 C 330.044 245.765,330.219 246.560,330.419 247.000 C 330.671 247.558,330.707 247.315,330.538 246.200 C 330.255 244.343,329.987 243.836,330.028 245.233 M207.466 249.168 C 207.319 250.578,207.274 251.807,207.366 251.900 C 207.614 252.147,208.115 247.746,207.910 247.130 C 207.813 246.840,207.614 247.757,207.466 249.168 M330.600 283.200 C 330.600 302.010,330.714 315.060,330.854 312.200 C 330.994 309.340,331.109 296.290,331.109 283.200 C 331.109 270.110,330.994 257.060,330.854 254.200 C 330.714 251.340,330.600 264.390,330.600 283.200 M207.387 276.400 C 207.387 288.390,207.438 293.295,207.500 287.300 C 207.562 281.305,207.562 271.495,207.500 265.500 C 207.438 259.505,207.387 264.410,207.387 276.400 M69.066 299.932 C 68.882 319.145,68.815 334.948,68.917 335.051 C 69.188 335.321,69.678 287.218,69.528 275.200 C 69.457 269.590,69.250 280.720,69.066 299.932 M178.962 274.200 C 178.962 277.720,179.024 279.106,179.098 277.281 C 179.172 275.456,179.172 272.576,179.097 270.881 C 179.022 269.186,178.961 270.680,178.962 274.200 M207.305 308.000 C 207.294 309.210,207.417 311.820,207.579 313.800 L 207.873 317.400 207.887 314.400 C 207.894 312.750,207.771 310.140,207.613 308.600 C 207.331 305.849,207.326 305.839,207.305 308.000 M207.656 319.200 C 207.656 319.530,207.811 320.160,208.000 320.600 C 208.217 321.104,208.344 321.178,208.344 320.800 C 208.344 320.470,208.189 319.840,208.000 319.400 C 207.783 318.896,207.656 318.822,207.656 319.200 M330.200 320.000 C 330.048 320.691,330.007 321.341,330.109 321.442 C 330.211 321.544,330.409 321.053,330.550 320.350 C 330.691 319.647,330.731 318.998,330.641 318.908 C 330.550 318.817,330.352 319.309,330.200 320.000 M329.014 324.235 C 328.641 324.804,328.405 325.338,328.489 325.422 C 328.573 325.507,328.958 325.041,329.344 324.388 C 330.206 322.928,329.948 322.809,329.014 324.235 M386.300 332.960 C 386.135 334.699,386.024 338.389,386.053 341.160 L 386.106 346.200 386.463 342.800 C 386.659 340.930,386.770 337.240,386.710 334.600 L 386.600 329.800 386.300 332.960 M224.000 330.814 C 225.430 330.975,227.500 331.103,228.600 331.100 L 230.600 331.093 228.600 330.782 C 227.500 330.610,225.430 330.482,224.000 330.496 L 221.400 330.522 224.000 330.814 M311.000 330.800 L 309.400 331.086 311.200 331.100 C 312.190 331.107,314.080 330.979,315.400 330.815 L 317.800 330.518 315.200 330.516 C 313.770 330.514,311.880 330.642,311.000 330.800 M266.700 331.098 C 268.735 331.171,272.065 331.171,274.100 331.098 C 276.135 331.025,274.470 330.966,270.400 330.966 C 266.330 330.966,264.665 331.025,266.700 331.098 M41.228 345.100 C 41.211 347.585,41.358 349.200,41.600 349.200 C 42.090 349.200,42.090 342.940,41.600 341.800 C 41.377 341.280,41.246 342.437,41.228 345.100 M13.663 344.200 C 13.667 345.520,13.810 347.500,13.982 348.600 C 14.260 350.385,14.296 350.214,14.318 347.000 C 14.332 345.020,14.189 343.040,14.000 342.600 C 13.758 342.038,13.658 342.513,13.663 344.200 M41.600 358.400 C 41.600 358.840,41.780 359.200,42.000 359.200 C 42.220 359.200,42.400 358.840,42.400 358.400 C 42.400 357.960,42.220 357.600,42.000 357.600 C 41.780 357.600,41.600 357.960,41.600 358.400 M385.905 360.000 C 385.418 361.655,385.535 363.690,386.044 362.414 C 386.261 361.872,386.384 360.882,386.319 360.214 C 386.202 359.022,386.195 359.018,385.905 360.000 M14.012 362.600 C 14.012 363.040,14.187 363.670,14.400 364.000 C 14.721 364.497,14.788 364.462,14.788 363.800 C 14.788 363.360,14.613 362.730,14.400 362.400 C 14.079 361.903,14.012 361.938,14.012 362.600 M353.253 370.653 C 352.513 370.976,352.001 371.334,352.116 371.450 C 352.337 371.671,354.800 370.515,354.800 370.190 C 354.800 369.963,354.913 369.929,353.253 370.653 M342.200 372.400 C 341.067 372.688,341.093 372.708,342.676 372.753 C 343.598 372.779,344.464 372.620,344.600 372.400 C 344.879 371.948,343.975 371.948,342.200 372.400 M58.400 372.800 C 58.730 373.013,59.990 373.168,61.200 373.144 L 63.400 373.100 61.600 372.780 C 58.945 372.307,57.650 372.315,58.400 372.800 M318.800 372.800 L 310.600 373.025 321.200 373.065 C 327.030 373.087,332.340 372.968,333.000 372.800 C 334.361 372.454,331.420 372.454,318.800 372.800 M369.414 391.646 C 367.313 393.226,367.116 393.487,368.727 392.562 C 369.862 391.910,371.647 390.345,371.162 390.427 C 371.073 390.442,370.286 390.991,369.414 391.646 M363.900 395.029 C 362.405 395.840,362.496 396.178,364.000 395.400 C 364.660 395.059,365.200 394.694,365.200 394.590 C 365.200 394.332,365.157 394.347,363.900 395.029 M52.505 399.887 C 53.114 399.979,54.014 399.977,54.505 399.882 C 54.997 399.787,54.500 399.711,53.400 399.714 C 52.300 399.717,51.897 399.795,52.505 399.887 M346.105 399.887 C 346.714 399.979,347.614 399.977,348.105 399.882 C 348.597 399.787,348.100 399.711,347.000 399.714 C 345.900 399.717,345.497 399.795,346.105 399.887 M84.100 400.297 C 85.805 400.372,88.595 400.372,90.300 400.297 C 92.005 400.222,90.610 400.161,87.200 400.161 C 83.790 400.161,82.395 400.222,84.100 400.297 M309.919 400.298 C 311.744 400.372,314.624 400.372,316.319 400.297 C 318.014 400.222,316.520 400.161,313.000 400.162 C 309.480 400.162,308.094 400.224,309.919 400.298 " stroke="none" fill="#4e4e4e" fill-rule="evenodd"></path><path id="path3" d="M149.700 0.300 C 157.565 0.360,170.435 0.360,178.300 0.300 C 186.165 0.239,179.730 0.190,164.000 0.190 C 148.270 0.190,141.835 0.239,149.700 0.300 M279.300 0.676 C 279.685 0.776,280.315 0.776,280.700 0.676 C 281.085 0.575,280.770 0.493,280.000 0.493 C 279.230 0.493,278.915 0.575,279.300 0.676 M152.093 34.000 C 152.093 34.770,152.175 35.085,152.276 34.700 C 152.376 34.315,152.376 33.685,152.276 33.300 C 152.175 32.915,152.093 33.230,152.093 34.000 M120.800 37.960 C 120.800 38.158,121.430 38.320,122.200 38.320 C 122.970 38.320,123.600 38.158,123.600 37.960 C 123.600 37.762,122.970 37.600,122.200 37.600 C 121.430 37.600,120.800 37.762,120.800 37.960 M66.100 41.487 C 66.705 41.578,67.695 41.578,68.300 41.487 C 68.905 41.395,68.410 41.320,67.200 41.320 C 65.990 41.320,65.495 41.395,66.100 41.487 M331.382 41.703 C 331.276 41.979,331.239 48.324,331.300 55.803 L 331.411 69.400 331.506 55.513 L 331.600 41.625 336.300 41.499 L 341.000 41.372 336.287 41.286 C 332.808 41.223,331.524 41.332,331.382 41.703 M116.202 41.997 C 116.067 42.215,116.141 42.710,116.366 43.097 C 116.717 43.700,116.777 43.644,116.788 42.700 C 116.801 41.550,116.616 41.328,116.202 41.997 M285.660 44.867 C 285.627 45.454,285.496 46.264,285.370 46.667 C 285.152 47.360,285.165 47.361,285.595 46.690 C 285.846 46.299,285.977 45.489,285.886 44.890 L 285.720 43.800 285.660 44.867 M119.633 47.752 C 120.041 48.124,124.000 49.993,124.000 49.813 C 124.000 49.588,120.180 47.600,119.747 47.600 C 119.593 47.600,119.542 47.668,119.633 47.752 M207.728 52.800 C 207.728 54.230,207.801 54.815,207.889 54.100 C 207.978 53.385,207.978 52.215,207.889 51.500 C 207.801 50.785,207.728 51.370,207.728 52.800 M372.800 52.525 C 372.800 52.594,373.385 53.179,374.100 53.825 L 375.400 55.000 374.225 53.700 C 373.130 52.488,372.800 52.216,372.800 52.525 M207.731 58.600 C 207.733 60.140,207.805 60.721,207.892 59.891 C 207.979 59.061,207.977 57.801,207.889 57.091 C 207.800 56.381,207.729 57.060,207.731 58.600 M162.893 59.600 C 162.893 60.370,162.975 60.685,163.076 60.300 C 163.176 59.915,163.176 59.285,163.076 58.900 C 162.975 58.515,162.893 58.830,162.893 59.600 M192.954 64.400 C 192.954 67.150,193.018 68.275,193.096 66.900 C 193.174 65.525,193.174 63.275,193.096 61.900 C 193.018 60.525,192.954 61.650,192.954 64.400 M274.100 63.887 C 274.705 63.978,275.695 63.978,276.300 63.887 C 276.905 63.795,276.410 63.720,275.200 63.720 C 273.990 63.720,273.495 63.795,274.100 63.887 M152.109 69.200 C 152.109 70.190,152.187 70.595,152.282 70.100 C 152.378 69.605,152.378 68.795,152.282 68.300 C 152.187 67.805,152.109 68.210,152.109 69.200 M192.540 74.800 C 192.540 76.670,192.609 77.435,192.693 76.500 C 192.777 75.565,192.777 74.035,192.693 73.100 C 192.609 72.165,192.540 72.930,192.540 74.800 M182.006 74.676 C 182.003 75.158,182.180 75.664,182.400 75.800 C 182.909 76.115,182.909 75.188,182.400 74.400 C 182.085 73.912,182.011 73.964,182.006 74.676 M240.880 77.080 C 239.693 78.413,239.979 78.700,241.200 77.400 C 241.715 76.852,242.059 76.325,241.964 76.230 C 241.869 76.135,241.381 76.518,240.880 77.080 M162.501 77.800 C 162.505 78.680,162.587 78.993,162.683 78.495 C 162.779 77.998,162.775 77.278,162.675 76.895 C 162.575 76.513,162.496 76.920,162.501 77.800 M133.260 77.442 C 132.962 77.778,132.799 78.132,132.895 78.229 C 132.992 78.326,133.398 78.044,133.798 77.602 C 134.197 77.161,134.361 76.807,134.162 76.815 C 133.963 76.824,133.557 77.105,133.260 77.442 M13.855 83.855 C 13.713 84.886,13.674 85.808,13.769 85.902 C 13.863 85.996,14.065 85.239,14.218 84.218 C 14.371 83.198,14.410 82.276,14.304 82.171 C 14.198 82.065,13.996 82.823,13.855 83.855 M386.101 85.000 C 386.105 85.880,386.187 86.193,386.283 85.695 C 386.379 85.198,386.375 84.478,386.275 84.095 C 386.175 83.713,386.096 84.120,386.101 85.000 M41.500 90.350 C 41.335 91.093,41.222 92.983,41.249 94.550 L 41.298 97.400 41.657 95.000 C 42.111 91.968,41.983 88.177,41.500 90.350 M13.464 103.096 C 13.320 106.563,13.233 115.880,13.271 123.800 L 13.339 138.200 13.617 117.600 C 13.770 106.270,13.857 96.953,13.810 96.896 C 13.764 96.839,13.608 99.629,13.464 103.096 M358.400 117.592 L 358.400 137.985 359.300 138.204 C 359.795 138.325,366.140 138.373,373.400 138.312 L 386.600 138.200 386.606 118.300 L 386.611 98.400 386.502 118.200 L 386.393 138.000 372.796 138.000 L 359.200 138.000 359.200 117.600 C 359.200 104.267,359.061 97.200,358.800 97.200 C 358.539 97.200,358.400 104.264,358.400 117.592 M309.123 101.900 C 308.360 102.789,307.895 103.600,308.149 103.600 C 308.257 103.600,308.730 103.060,309.200 102.400 C 310.132 101.091,310.084 100.781,309.123 101.900 M128.900 110.291 C 129.725 110.378,131.075 110.378,131.900 110.291 C 132.725 110.205,132.050 110.134,130.400 110.134 C 128.750 110.134,128.075 110.205,128.900 110.291 M268.311 110.293 C 269.251 110.378,270.691 110.377,271.511 110.291 C 272.330 110.205,271.560 110.136,269.800 110.137 C 268.040 110.139,267.370 110.209,268.311 110.293 M20.700 138.299 C 24.495 138.365,30.705 138.365,34.500 138.299 C 38.295 138.234,35.190 138.180,27.600 138.180 C 20.010 138.180,16.905 138.234,20.700 138.299 M32.500 152.294 C 33.545 152.376,35.255 152.376,36.300 152.294 C 37.345 152.212,36.490 152.144,34.400 152.144 C 32.310 152.144,31.455 152.212,32.500 152.294 M139.300 152.300 C 156.405 152.358,184.395 152.358,201.500 152.300 C 218.605 152.242,204.610 152.195,170.400 152.195 C 136.190 152.195,122.195 152.242,139.300 152.300 M8.548 152.976 C 7.859 153.276,7.150 153.764,6.971 154.060 C 6.715 154.485,6.769 154.502,7.223 154.139 C 7.540 153.885,8.430 153.405,9.200 153.071 C 9.970 152.738,10.420 152.458,10.200 152.448 C 9.980 152.439,9.237 152.676,8.548 152.976 M19.700 152.691 C 20.525 152.778,21.875 152.778,22.700 152.691 C 23.525 152.605,22.850 152.534,21.200 152.534 C 19.550 152.534,18.875 152.605,19.700 152.691 M396.370 156.545 C 396.903 157.125,397.420 157.600,397.519 157.600 C 397.913 157.600,396.493 155.832,395.966 155.667 C 395.655 155.570,395.836 155.965,396.370 156.545 M13.680 207.280 C 13.161 207.799,13.066 285.591,13.554 311.000 C 13.689 318.040,13.800 297.610,13.800 265.600 L 13.800 207.400 27.600 207.192 L 41.400 206.984 27.780 206.892 C 17.615 206.823,14.038 206.922,13.680 207.280 M372.799 207.097 L 386.397 207.210 386.501 263.605 L 386.604 320.000 386.602 263.500 L 386.600 207.000 372.900 206.992 L 359.200 206.984 372.799 207.097 M358.406 214.500 C 358.409 218.295,358.587 221.670,358.800 222.000 C 359.058 222.399,359.190 220.090,359.194 215.100 C 359.198 210.363,359.053 207.600,358.800 207.600 C 358.549 207.600,358.402 210.163,358.406 214.500 M89.200 235.215 C 87.990 235.371,89.250 235.408,92.000 235.297 C 94.750 235.186,97.075 235.028,97.167 234.947 C 97.436 234.709,91.594 234.905,89.200 235.215 M152.833 234.945 C 152.925 235.024,155.070 235.183,157.600 235.298 C 160.557 235.432,161.485 235.393,160.200 235.188 C 158.172 234.866,152.528 234.679,152.833 234.945 M223.000 235.200 C 221.091 235.462,221.072 235.476,222.600 235.502 C 223.480 235.517,225.100 235.390,226.200 235.218 C 228.899 234.798,226.050 234.782,223.000 235.200 M310.000 235.220 C 310.990 235.397,312.430 235.530,313.200 235.517 C 314.345 235.497,314.235 235.436,312.600 235.182 C 309.853 234.754,307.569 234.788,310.000 235.220 M211.375 239.300 L 210.200 240.600 211.500 239.425 C 212.215 238.779,212.800 238.194,212.800 238.125 C 212.800 237.816,212.470 238.088,211.375 239.300 M327.600 239.800 C 327.874 240.130,328.278 240.400,328.498 240.400 C 328.721 240.400,328.678 240.135,328.400 239.800 C 328.126 239.470,327.722 239.200,327.502 239.200 C 327.279 239.200,327.322 239.465,327.600 239.800 M69.309 246.000 C 69.309 246.990,69.387 247.395,69.482 246.900 C 69.578 246.405,69.578 245.595,69.482 245.100 C 69.387 244.605,69.309 245.010,69.309 246.000 M330.901 253.800 C 330.905 254.680,330.987 254.993,331.083 254.495 C 331.179 253.998,331.175 253.278,331.075 252.895 C 330.975 252.513,330.896 252.920,330.901 253.800 M178.928 262.000 C 178.928 263.430,179.001 264.015,179.089 263.300 C 179.178 262.585,179.178 261.415,179.089 260.700 C 179.001 259.985,178.928 260.570,178.928 262.000 M206.901 269.800 C 206.905 270.680,206.987 270.993,207.083 270.495 C 207.179 269.998,207.175 269.278,207.075 268.895 C 206.975 268.513,206.896 268.920,206.901 269.800 M68.967 287.600 C 68.967 291.890,69.026 293.645,69.098 291.500 C 69.170 289.355,69.170 285.845,69.098 283.700 C 69.026 281.555,68.967 283.310,68.967 287.600 M330.901 312.600 C 330.905 313.480,330.987 313.793,331.083 313.295 C 331.179 312.798,331.175 312.078,331.075 311.695 C 330.975 311.313,330.896 311.720,330.901 312.600 M41.223 330.033 C 41.236 334.085,41.395 338.120,41.576 339.000 C 41.765 339.918,41.817 336.847,41.697 331.800 C 41.442 321.010,41.192 320.080,41.223 330.033 M210.400 326.125 C 210.400 326.194,210.985 326.779,211.700 327.425 L 213.000 328.600 211.825 327.300 C 210.730 326.088,210.400 325.816,210.400 326.125 M179.377 347.600 C 179.377 354.090,179.432 356.745,179.499 353.500 C 179.566 350.255,179.566 344.945,179.499 341.700 C 179.432 338.455,179.377 341.110,179.377 347.600 M386.520 345.600 C 386.520 346.810,386.595 347.305,386.687 346.700 C 386.778 346.095,386.778 345.105,386.687 344.500 C 386.595 343.895,386.520 344.390,386.520 345.600 M358.260 347.661 C 357.850 353.431,357.942 364.400,358.400 364.400 C 358.656 364.400,358.800 360.733,358.800 354.200 C 358.800 343.313,358.676 341.806,358.260 347.661 M386.134 352.000 C 386.134 353.650,386.205 354.325,386.291 353.500 C 386.378 352.675,386.378 351.325,386.291 350.500 C 386.205 349.675,386.134 350.350,386.134 352.000 M13.887 353.600 C 14.004 355.910,14.168 357.875,14.250 357.967 C 14.509 358.254,14.336 353.901,13.997 351.600 C 13.770 350.058,13.738 350.656,13.887 353.600 M41.606 355.876 C 41.603 356.358,41.780 356.864,42.000 357.000 C 42.509 357.315,42.509 356.388,42.000 355.600 C 41.685 355.112,41.611 355.164,41.606 355.876 M68.953 365.800 C 68.953 368.440,69.018 369.468,69.097 368.084 C 69.175 366.701,69.174 364.541,69.095 363.284 C 69.016 362.028,68.952 363.160,68.953 365.800 M54.500 372.676 C 54.885 372.776,55.515 372.776,55.900 372.676 C 56.285 372.575,55.970 372.493,55.200 372.493 C 54.430 372.493,54.115 372.575,54.500 372.676 M313.318 372.698 C 315.033 372.773,317.733 372.772,319.318 372.697 C 320.903 372.621,319.500 372.559,316.200 372.560 C 312.900 372.561,311.603 372.622,313.318 372.698 M337.905 372.683 C 338.402 372.779,339.122 372.775,339.505 372.675 C 339.887 372.575,339.480 372.496,338.600 372.501 C 337.720 372.505,337.407 372.587,337.905 372.683 M65.300 373.076 C 65.685 373.176,66.315 373.176,66.700 373.076 C 67.085 372.975,66.770 372.893,66.000 372.893 C 65.230 372.893,64.915 372.975,65.300 373.076 M70.900 400.291 C 71.725 400.378,73.075 400.378,73.900 400.291 C 74.725 400.205,74.050 400.134,72.400 400.134 C 70.750 400.134,70.075 400.205,70.900 400.291 M326.100 400.291 C 326.925 400.378,328.275 400.378,329.100 400.291 C 329.925 400.205,329.250 400.134,327.600 400.134 C 325.950 400.134,325.275 400.205,326.100 400.291 M179.131 400.700 C 190.862 400.759,209.942 400.759,221.531 400.700 C 233.119 400.641,223.520 400.593,200.200 400.593 C 176.880 400.593,167.399 400.641,179.131 400.700 " stroke="none" fill="#7c7c7c" fill-rule="evenodd"></path><path id="path4" d="M276.900 0.676 C 277.285 0.776,277.915 0.776,278.300 0.676 C 278.685 0.575,278.370 0.493,277.600 0.493 C 276.830 0.493,276.515 0.575,276.900 0.676 M162.989 37.700 L 163.000 47.400 172.600 47.411 L 182.200 47.421 172.707 47.304 L 163.214 47.186 163.096 37.593 L 162.978 28.000 162.989 37.700 M192.924 30.200 C 192.926 31.520,193.001 32.012,193.090 31.293 C 193.179 30.574,193.177 29.494,193.086 28.893 C 192.995 28.292,192.922 28.880,192.924 30.200 M248.120 54.800 C 248.120 56.010,248.195 56.505,248.287 55.900 C 248.378 55.295,248.378 54.305,248.287 53.700 C 248.195 53.095,248.120 53.590,248.120 54.800 M192.931 71.800 C 192.933 73.340,193.005 73.921,193.092 73.091 C 193.179 72.261,193.177 71.001,193.089 70.291 C 193.000 69.581,192.929 70.260,192.931 71.800 M192.493 79.200 C 192.493 79.970,192.575 80.285,192.676 79.900 C 192.776 79.515,192.776 78.885,192.676 78.500 C 192.575 78.115,192.493 78.430,192.493 79.200 M226.900 83.076 C 227.285 83.176,227.915 83.176,228.300 83.076 C 228.685 82.975,228.370 82.893,227.600 82.893 C 226.830 82.893,226.515 82.975,226.900 83.076 M41.467 88.667 C 41.320 88.813,41.215 89.398,41.234 89.967 C 41.268 90.981,41.275 90.979,41.621 89.820 C 41.985 88.603,41.931 88.202,41.467 88.667 M358.400 95.600 C 358.400 96.480,358.580 97.200,358.800 97.200 C 359.020 97.200,359.200 96.480,359.200 95.600 C 359.200 94.720,359.020 94.000,358.800 94.000 C 358.580 94.000,358.400 94.720,358.400 95.600 M13.783 121.600 C 13.783 130.730,13.835 134.465,13.900 129.900 C 13.964 125.335,13.964 117.865,13.900 113.300 C 13.835 108.735,13.783 112.470,13.783 121.600 M120.900 109.887 C 121.505 109.978,122.495 109.978,123.100 109.887 C 123.705 109.795,123.210 109.720,122.000 109.720 C 120.790 109.720,120.295 109.795,120.900 109.887 M277.300 109.887 C 277.905 109.978,278.895 109.978,279.500 109.887 C 280.105 109.795,279.610 109.720,278.400 109.720 C 277.190 109.720,276.695 109.795,277.300 109.887 M136.319 110.298 C 138.144 110.372,141.024 110.372,142.719 110.297 C 144.414 110.222,142.920 110.161,139.400 110.162 C 135.880 110.162,134.494 110.224,136.319 110.298 M257.700 110.297 C 259.405 110.372,262.195 110.372,263.900 110.297 C 265.605 110.222,264.210 110.161,260.800 110.161 C 257.390 110.161,255.995 110.222,257.700 110.297 M40.100 152.296 C 41.365 152.375,43.435 152.375,44.700 152.296 C 45.965 152.216,44.930 152.151,42.400 152.151 C 39.870 152.151,38.835 152.216,40.100 152.296 M25.712 152.695 C 26.764 152.777,28.384 152.776,29.312 152.692 C 30.240 152.608,29.380 152.541,27.400 152.542 C 25.420 152.543,24.660 152.612,25.712 152.695 M13.793 254.000 C 13.793 279.630,13.841 290.115,13.900 277.300 C 13.959 264.485,13.959 243.515,13.900 230.700 C 13.841 217.885,13.793 228.370,13.793 254.000 M358.446 230.600 C 358.465 235.825,358.618 239.368,358.800 238.800 C 359.263 237.353,359.263 222.717,358.800 222.000 C 358.544 221.604,358.424 224.526,358.446 230.600 M111.129 235.100 C 118.900 235.161,131.500 235.161,139.129 235.100 C 146.758 235.039,140.400 234.989,125.000 234.989 C 109.600 234.989,103.358 235.039,111.129 235.100 M305.107 235.090 C 305.826 235.179,306.906 235.177,307.507 235.086 C 308.108 234.995,307.520 234.922,306.200 234.924 C 304.880 234.926,304.388 235.001,305.107 235.090 M92.500 235.491 C 93.325 235.578,94.675 235.578,95.500 235.491 C 96.325 235.405,95.650 235.334,94.000 235.334 C 92.350 235.334,91.675 235.405,92.500 235.491 M154.500 235.491 C 155.325 235.578,156.675 235.578,157.500 235.491 C 158.325 235.405,157.650 235.334,156.000 235.334 C 154.350 235.334,153.675 235.405,154.500 235.491 M225.505 235.483 C 226.002 235.579,226.722 235.575,227.105 235.475 C 227.487 235.375,227.080 235.296,226.200 235.301 C 225.320 235.305,225.007 235.387,225.505 235.483 M69.371 256.400 C 69.371 261.350,69.428 263.375,69.499 260.900 C 69.569 258.425,69.569 254.375,69.499 251.900 C 69.428 249.425,69.371 251.450,69.371 256.400 M330.901 256.600 C 330.905 257.480,330.987 257.793,331.083 257.295 C 331.179 256.798,331.175 256.078,331.075 255.695 C 330.975 255.313,330.896 255.720,330.901 256.600 M178.914 266.200 C 178.917 267.300,178.995 267.703,179.087 267.095 C 179.179 266.486,179.177 265.586,179.082 265.095 C 178.987 264.603,178.911 265.100,178.914 266.200 M68.953 299.800 C 68.953 302.440,69.018 303.468,69.097 302.084 C 69.175 300.701,69.174 298.541,69.095 297.284 C 69.016 296.028,68.952 297.160,68.953 299.800 M330.901 309.800 C 330.905 310.680,330.987 310.993,331.083 310.495 C 331.179 309.998,331.175 309.278,331.075 308.895 C 330.975 308.513,330.896 308.920,330.901 309.800 M247.676 331.099 C 250.468 331.167,255.148 331.168,258.076 331.099 C 261.004 331.031,258.720 330.975,253.000 330.974 C 247.280 330.974,244.884 331.030,247.676 331.099 M283.324 331.099 C 286.583 331.167,291.803 331.166,294.924 331.099 C 298.046 331.031,295.380 330.976,289.000 330.977 C 282.620 330.977,280.066 331.032,283.324 331.099 M41.274 339.400 C 41.264 340.280,41.411 341.360,41.600 341.800 L 41.944 342.600 41.949 341.800 C 41.952 341.360,41.805 340.280,41.623 339.400 L 41.292 337.800 41.274 339.400 M386.109 347.600 C 386.109 348.590,386.187 348.995,386.282 348.500 C 386.378 348.005,386.378 347.195,386.282 346.700 C 386.187 346.205,386.109 346.610,386.109 347.600 M13.693 348.400 C 13.693 349.170,13.775 349.485,13.876 349.100 C 13.976 348.715,13.976 348.085,13.876 347.700 C 13.775 347.315,13.693 347.630,13.693 348.400 M14.101 351.800 C 14.105 352.680,14.187 352.993,14.283 352.495 C 14.379 351.998,14.375 351.278,14.275 350.895 C 14.175 350.513,14.096 350.920,14.101 351.800 M179.364 365.800 C 179.363 369.540,179.423 371.124,179.497 369.320 C 179.571 367.515,179.572 364.455,179.498 362.520 C 179.425 360.584,179.364 362.060,179.364 365.800 M68.893 371.600 C 68.893 372.370,68.975 372.685,69.076 372.300 C 69.176 371.915,69.176 371.285,69.076 370.900 C 68.975 370.515,68.893 370.830,68.893 371.600 M323.100 372.689 C 323.815 372.778,324.985 372.778,325.700 372.689 C 326.415 372.601,325.830 372.528,324.400 372.528 C 322.970 372.528,322.385 372.601,323.100 372.689 M212.300 373.100 C 230.395 373.158,260.005 373.158,278.100 373.100 C 296.195 373.042,281.390 372.995,245.200 372.995 C 209.010 372.995,194.205 373.042,212.300 373.100 M76.711 400.293 C 77.651 400.378,79.091 400.377,79.911 400.291 C 80.730 400.205,79.960 400.136,78.200 400.137 C 76.440 400.139,75.770 400.209,76.711 400.293 M320.500 400.291 C 321.325 400.378,322.675 400.378,323.500 400.291 C 324.325 400.205,323.650 400.134,322.000 400.134 C 320.350 400.134,319.675 400.205,320.500 400.291 " stroke="none" fill="#747474" fill-rule="evenodd"></path></g></svg>